<?xml version="1.0" encoding="utf-8" ?>
<svg baseProfile="tiny" height="600" version="1.2" width="800" xmlns="http://www.w3.org/2000/svg" xmlns:ev="http://www.w3.org/2001/xml-events" xmlns:xlink="http://www.w3.org/1999/xlink"><defs /><rect fill="magenta" height="10" width="10" x="390" y="0" /><rect fill="cyan" height="10" width="10" x="400" y="0" /><circle cx="405" cy="5" fill="white" r="3" /><rect fill="magenta" height="10" width="10" x="390" y="10" /><rect fill="cyan" height="10" width="10" x="400" y="10" /><line stroke="black" x1="400" x2="380" y1="10" y2="40" /><rect fill="magenta" height="10" width="10" x="370" y="30" /><rect fill="cyan" height="10" width="10" x="380" y="30" /><rect fill="magenta" height="10" width="10" x="370" y="40" /><rect fill="cyan" height="10" width="10" x="380" y="40" /><circle cx="385" cy="45" fill="white" r="3" /><line stroke="black" x1="400" x2="402" y1="10" y2="40" /><rect fill="cyan" height="10" width="10" x="392" y="30" /><circle cx="397" cy="35" fill="white" r="3" /><rect fill="magenta" height="10" width="10" x="402" y="30" /><rect fill="magenta" height="10" width="10" x="392" y="40" /><rect fill="cyan" height="10" width="10" x="402" y="40" /><line stroke="black" x1="400" x2="424" y1="10" y2="40" /><rect fill="magenta" height="10" width="10" x="414" y="30" /><rect fill="cyan" height="10" width="10" x="424" y="30" /><circle cx="429" cy="35" fill="white" r="3" /><rect fill="cyan" height="10" width="10" x="414" y="40" /><rect fill="cyan" height="10" width="10" x="424" y="40" /><line stroke="black" x1="402" x2="382" y1="40" y2="70" /><rect fill="magenta" height="10" width="10" x="372" y="60" /><rect fill="cyan" height="10" width="10" x="382" y="60" /><circle cx="387" cy="65" fill="white" r="3" /><rect fill="magenta" height="10" width="10" x="372" y="70" /><rect fill="cyan" height="10" width="10" x="382" y="70" /><line stroke="black" x1="402" x2="404" y1="40" y2="70" /><rect fill="magenta" height="10" width="10" x="394" y="60" /><rect fill="magenta" height="10" width="10" x="404" y="60" /><rect fill="cyan" height="10" width="10" x="394" y="70" /><circle cx="399" cy="75" fill="white" r="3" /><rect fill="cyan" height="10" width="10" x="404" y="70" /><line stroke="black" x1="424" x2="404" y1="40" y2="70" /><rect fill="cyan" height="10" width="10" x="394" y="60" /><circle cx="399" cy="65" fill="white" r="3" /><rect fill="magenta" height="10" width="10" x="404" y="60" /><rect fill="cyan" height="10" width="10" x="394" y="70" /><rect fill="cyan" height="10" width="10" x="404" y="70" /><line stroke="black" x1="424" x2="426" y1="40" y2="70" /><rect fill="magenta" height="10" width="10" x="416" y="60" /><rect fill="cyan" height="10" width="10" x="426" y="60" /><rect fill="cyan" height="10" width="10" x="416" y="70" /><rect fill="cyan" height="10" width="10" x="426" y="70" /><circle cx="431" cy="75" fill="white" r="3" /><line stroke="black" x1="404" x2="384" y1="70" y2="100" /><rect fill="cyan" height="10" width="10" x="374" y="90" /><rect fill="magenta" height="10" width="10" x="384" y="90" /><rect fill="cyan" height="10" width="10" x="374" y="100" /><circle cx="379" cy="105" fill="white" r="3" /><rect fill="cyan" height="10" width="10" x="384" y="100" /><line stroke="black" x1="404" x2="406" y1="70" y2="100" /><rect fill="magenta" height="10" width="10" x="396" y="90" /><rect fill="cyan" height="10" width="10" x="406" y="90" /><circle cx="411" cy="95" fill="white" r="3" /><rect fill="cyan" height="10" width="10" x="396" y="100" /><rect fill="cyan" height="10" width="10" x="406" y="100" /><line stroke="black" x1="404" x2="384" y1="70" y2="100" /><rect fill="magenta" height="10" width="10" x="374" y="90" /><rect fill="magenta" height="10" width="10" x="384" y="90" /><rect fill="cyan" height="10" width="10" x="374" y="100" /><rect fill="cyan" height="10" width="10" x="384" y="100" /><circle cx="389" cy="105" fill="white" r="3" /><line stroke="black" x1="404" x2="406" y1="70" y2="100" /><rect fill="cyan" height="10" width="10" x="396" y="90" /><circle cx="401" cy="95" fill="white" r="3" /><rect fill="magenta" height="10" width="10" x="406" y="90" /><rect fill="magenta" height="10" width="10" x="396" y="100" /><rect fill="cyan" height="10" width="10" x="406" y="100" /><line stroke="black" x1="404" x2="428" y1="70" y2="100" /><rect fill="magenta" height="10" width="10" x="418" y="90" /><rect fill="cyan" height="10" width="10" x="428" y="90" /><rect fill="cyan" height="10" width="10" x="418" y="100" /><circle cx="423" cy="105" fill="white" r="3" /><rect fill="cyan" height="10" width="10" x="428" y="100" /><line stroke="black" x1="384" x2="364" y1="100" y2="130" /><rect fill="cyan" height="10" width="10" x="354" y="120" /><rect fill="cyan" height="10" width="10" x="364" y="120" /><rect fill="cyan" height="10" width="10" x="354" y="130" /><circle cx="359" cy="135" fill="white" r="3" /><rect fill="cyan" height="10" width="10" x="364" y="130" /><line stroke="black" x1="384" x2="386" y1="100" y2="130" /><rect fill="cyan" height="10" width="10" x="376" y="120" /><rect fill="magenta" height="10" width="10" x="386" y="120" /><rect fill="cyan" height="10" width="10" x="376" y="130" /><rect fill="cyan" height="10" width="10" x="386" y="130" /><circle cx="391" cy="135" fill="white" r="3" /><line stroke="black" x1="384" x2="364" y1="100" y2="130" /><rect fill="magenta" height="10" width="10" x="354" y="120" /><rect fill="magenta" height="10" width="10" x="364" y="120" /><rect fill="cyan" height="10" width="10" x="354" y="130" /><circle cx="359" cy="135" fill="white" r="3" /><rect fill="cyan" height="10" width="10" x="364" y="130" /><line stroke="black" x1="384" x2="386" y1="100" y2="130" /><rect fill="cyan" height="10" width="10" x="376" y="120" /><rect fill="magenta" height="10" width="10" x="386" y="120" /><rect fill="cyan" height="10" width="10" x="376" y="130" /><rect fill="cyan" height="10" width="10" x="386" y="130" /><circle cx="391" cy="135" fill="white" r="3" /><line stroke="black" x1="384" x2="408" y1="100" y2="130" /><rect fill="magenta" height="10" width="10" x="398" y="120" /><rect fill="cyan" height="10" width="10" x="408" y="120" /><circle cx="413" cy="125" fill="white" r="3" /><rect fill="cyan" height="10" width="10" x="398" y="130" /><rect fill="magenta" height="10" width="10" x="408" y="130" /><line stroke="black" x1="386" x2="366" y1="130" y2="160" /><rect fill="cyan" height="10" width="10" x="356" y="150" /><rect fill="magenta" height="10" width="10" x="366" y="150" /><rect fill="cyan" height="10" width="10" x="356" y="160" /><circle cx="361" cy="165" fill="white" r="3" /><rect fill="cyan" height="10" width="10" x="366" y="160" /><line stroke="black" x1="386" x2="388" y1="130" y2="160" /><rect fill="cyan" height="10" width="10" x="378" y="150" /><rect fill="cyan" height="10" width="10" x="388" y="150" /><circle cx="393" cy="155" fill="white" r="3" /><rect fill="cyan" height="10" width="10" x="378" y="160" /><rect fill="magenta" height="10" width="10" x="388" y="160" /><line stroke="black" x1="408" x2="388" y1="130" y2="160" /><rect fill="magenta" height="10" width="10" x="378" y="150" /><rect fill="magenta" height="10" width="10" x="388" y="150" /><rect fill="cyan" height="10" width="10" x="378" y="160" /><rect fill="cyan" height="10" width="10" x="388" y="160" /><circle cx="393" cy="165" fill="white" r="3" /><line stroke="black" x1="408" x2="410" y1="130" y2="160" /><rect fill="cyan" height="10" width="10" x="400" y="150" /><circle cx="405" cy="155" fill="white" r="3" /><rect fill="magenta" height="10" width="10" x="410" y="150" /><rect fill="cyan" height="10" width="10" x="400" y="160" /><rect fill="magenta" height="10" width="10" x="410" y="160" /><line stroke="black" x1="410" x2="390" y1="160" y2="190" /><rect fill="cyan" height="10" width="10" x="380" y="180" /><circle cx="385" cy="185" fill="white" r="3" /><rect fill="magenta" height="10" width="10" x="390" y="180" /><rect fill="cyan" height="10" width="10" x="380" y="190" /><rect fill="cyan" height="10" width="10" x="390" y="190" /><line stroke="black" x1="410" x2="412" y1="160" y2="190" /><rect fill="cyan" height="10" width="10" x="402" y="180" /><rect fill="magenta" height="10" width="10" x="412" y="180" /><rect fill="cyan" height="10" width="10" x="402" y="190" /><circle cx="407" cy="195" fill="white" r="3" /><rect fill="magenta" height="10" width="10" x="412" y="190" /><line stroke="black" x1="410" x2="434" y1="160" y2="190" /><rect fill="magenta" height="10" width="10" x="424" y="180" /><rect fill="cyan" height="10" width="10" x="434" y="180" /><circle cx="439" cy="185" fill="white" r="3" /><rect fill="cyan" height="10" width="10" x="424" y="190" /><rect fill="magenta" height="10" width="10" x="434" y="190" /><line stroke="black" x1="388" x2="368" y1="160" y2="190" /><rect fill="cyan" height="10" width="10" x="358" y="180" /><circle cx="363" cy="185" fill="white" r="3" /><rect fill="cyan" height="10" width="10" x="368" y="180" /><rect fill="cyan" height="10" width="10" x="358" y="190" /><rect fill="magenta" height="10" width="10" x="368" y="190" /><line stroke="black" x1="388" x2="390" y1="160" y2="190" /><rect fill="cyan" height="10" width="10" x="380" y="180" /><rect fill="magenta" height="10" width="10" x="390" y="180" /><rect fill="cyan" height="10" width="10" x="380" y="190" /><rect fill="cyan" height="10" width="10" x="390" y="190" /><circle cx="395" cy="195" fill="white" r="3" /><line stroke="black" x1="368" x2="348" y1="190" y2="220" /><rect fill="cyan" height="10" width="10" x="338" y="210" /><circle cx="343" cy="215" fill="white" r="3" /><rect fill="cyan" height="10" width="10" x="348" y="210" /><rect fill="cyan" height="10" width="10" x="338" y="220" /><rect fill="cyan" height="10" width="10" x="348" y="220" /><line stroke="black" x1="368" x2="370" y1="190" y2="220" /><rect fill="cyan" height="10" width="10" x="360" y="210" /><rect fill="cyan" height="10" width="10" x="370" y="210" /><circle cx="375" cy="215" fill="white" r="3" /><rect fill="cyan" height="10" width="10" x="360" y="220" /><rect fill="magenta" height="10" width="10" x="370" y="220" /><line stroke="black" x1="412" x2="392" y1="190" y2="220" /><rect fill="cyan" height="10" width="10" x="382" y="210" /><rect fill="magenta" height="10" width="10" x="392" y="210" /><rect fill="magenta" height="10" width="10" x="382" y="220" /><rect fill="cyan" height="10" width="10" x="392" y="220" /><circle cx="397" cy="225" fill="white" r="3" /><line stroke="black" x1="412" x2="414" y1="190" y2="220" /><rect fill="cyan" height="10" width="10" x="404" y="210" /><rect fill="cyan" height="10" width="10" x="414" y="210" /><rect fill="cyan" height="10" width="10" x="404" y="220" /><circle cx="409" cy="225" fill="white" r="3" /><rect fill="magenta" height="10" width="10" x="414" y="220" /><line stroke="black" x1="412" x2="436" y1="190" y2="220" /><rect fill="cyan" height="10" width="10" x="426" y="210" /><circle cx="431" cy="215" fill="white" r="3" /><rect fill="magenta" height="10" width="10" x="436" y="210" /><rect fill="cyan" height="10" width="10" x="426" y="220" /><rect fill="magenta" height="10" width="10" x="436" y="220" /><line stroke="black" x1="414" x2="394" y1="220" y2="250" /><rect fill="cyan" height="10" width="10" x="384" y="240" /><circle cx="389" cy="245" fill="white" r="3" /><rect fill="cyan" height="10" width="10" x="394" y="240" /><rect fill="cyan" height="10" width="10" x="384" y="250" /><rect fill="magenta" height="10" width="10" x="394" y="250" /><line stroke="black" x1="414" x2="416" y1="220" y2="250" /><rect fill="cyan" height="10" width="10" x="406" y="240" /><rect fill="cyan" height="10" width="10" x="416" y="240" /><rect fill="magenta" height="10" width="10" x="406" y="250" /><rect fill="cyan" height="10" width="10" x="416" y="250" /><circle cx="421" cy="255" fill="white" r="3" /><line stroke="black" x1="392" x2="372" y1="220" y2="250" /><rect fill="cyan" height="10" width="10" x="362" y="240" /><rect fill="cyan" height="10" width="10" x="372" y="240" /><circle cx="377" cy="245" fill="white" r="3" /><rect fill="magenta" height="10" width="10" x="362" y="250" /><rect fill="magenta" height="10" width="10" x="372" y="250" /><line stroke="black" x1="392" x2="394" y1="220" y2="250" /><rect fill="cyan" height="10" width="10" x="384" y="240" /><rect fill="magenta" height="10" width="10" x="394" y="240" /><rect fill="cyan" height="10" width="10" x="384" y="250" /><circle cx="389" cy="255" fill="white" r="3" /><rect fill="magenta" height="10" width="10" x="394" y="250" /><line stroke="black" x1="372" x2="352" y1="250" y2="280" /><rect fill="cyan" height="10" width="10" x="342" y="270" /><circle cx="347" cy="275" fill="white" r="3" /><rect fill="cyan" height="10" width="10" x="352" y="270" /><rect fill="magenta" height="10" width="10" x="342" y="280" /><rect fill="magenta" height="10" width="10" x="352" y="280" /><line stroke="black" x1="372" x2="374" y1="250" y2="280" /><rect fill="cyan" height="10" width="10" x="364" y="270" /><rect fill="magenta" height="10" width="10" x="374" y="270" /><rect fill="magenta" height="10" width="10" x="364" y="280" /><rect fill="cyan" height="10" width="10" x="374" y="280" /><circle cx="379" cy="285" fill="white" r="3" /><line stroke="black" x1="372" x2="396" y1="250" y2="280" /><rect fill="cyan" height="10" width="10" x="386" y="270" /><rect fill="cyan" height="10" width="10" x="396" y="270" /><circle cx="401" cy="275" fill="white" r="3" /><rect fill="cyan" height="10" width="10" x="386" y="280" /><rect fill="magenta" height="10" width="10" x="396" y="280" /><line stroke="black" x1="416" x2="396" y1="250" y2="280" /><rect fill="cyan" height="10" width="10" x="386" y="270" /><rect fill="cyan" height="10" width="10" x="396" y="270" /><rect fill="cyan" height="10" width="10" x="386" y="280" /><circle cx="391" cy="285" fill="white" r="3" /><rect fill="magenta" height="10" width="10" x="396" y="280" /><line stroke="black" x1="416" x2="418" y1="250" y2="280" /><rect fill="cyan" height="10" width="10" x="408" y="270" /><rect fill="cyan" height="10" width="10" x="418" y="270" /><circle cx="423" cy="275" fill="white" r="3" /><rect fill="magenta" height="10" width="10" x="408" y="280" /><rect fill="cyan" height="10" width="10" x="418" y="280" /><line stroke="black" x1="352" x2="332" y1="280" y2="310" /><rect fill="cyan" height="10" width="10" x="322" y="300" /><circle cx="327" cy="305" fill="white" r="3" /><rect fill="cyan" height="10" width="10" x="332" y="300" /><rect fill="magenta" height="10" width="10" x="322" y="310" /><rect fill="cyan" height="10" width="10" x="332" y="310" /><line stroke="black" x1="352" x2="354" y1="280" y2="310" /><rect fill="magenta" height="10" width="10" x="344" y="300" /><rect fill="cyan" height="10" width="10" x="354" y="300" /><rect fill="cyan" height="10" width="10" x="344" y="310" /><circle cx="349" cy="315" fill="white" r="3" /><rect fill="magenta" height="10" width="10" x="354" y="310" /><line stroke="black" x1="352" x2="376" y1="280" y2="310" /><rect fill="cyan" height="10" width="10" x="366" y="300" /><rect fill="cyan" height="10" width="10" x="376" y="300" /><circle cx="381" cy="305" fill="white" r="3" /><rect fill="magenta" height="10" width="10" x="366" y="310" /><rect fill="magenta" height="10" width="10" x="376" y="310" /><line stroke="black" x1="418" x2="398" y1="280" y2="310" /><rect fill="cyan" height="10" width="10" x="388" y="300" /><rect fill="cyan" height="10" width="10" x="398" y="300" /><circle cx="403" cy="305" fill="white" r="3" /><rect fill="cyan" height="10" width="10" x="388" y="310" /><rect fill="cyan" height="10" width="10" x="398" y="310" /><line stroke="black" x1="418" x2="420" y1="280" y2="310" /><rect fill="cyan" height="10" width="10" x="410" y="300" /><circle cx="415" cy="305" fill="white" r="3" /><rect fill="cyan" height="10" width="10" x="420" y="300" /><rect fill="magenta" height="10" width="10" x="410" y="310" /><rect fill="cyan" height="10" width="10" x="420" y="310" /><line stroke="black" x1="354" x2="334" y1="310" y2="340" /><rect fill="cyan" height="10" width="10" x="324" y="330" /><circle cx="329" cy="335" fill="white" r="3" /><rect fill="cyan" height="10" width="10" x="334" y="330" /><rect fill="magenta" height="10" width="10" x="324" y="340" /><rect fill="magenta" height="10" width="10" x="334" y="340" /><line stroke="black" x1="354" x2="356" y1="310" y2="340" /><rect fill="magenta" height="10" width="10" x="346" y="330" /><rect fill="cyan" height="10" width="10" x="356" y="330" /><rect fill="magenta" height="10" width="10" x="346" y="340" /><rect fill="cyan" height="10" width="10" x="356" y="340" /><circle cx="361" cy="345" fill="white" r="3" /><line stroke="black" x1="420" x2="400" y1="310" y2="340" /><rect fill="cyan" height="10" width="10" x="390" y="330" /><rect fill="cyan" height="10" width="10" x="400" y="330" /><circle cx="405" cy="335" fill="white" r="3" /><rect fill="magenta" height="10" width="10" x="390" y="340" /><rect fill="cyan" height="10" width="10" x="400" y="340" /><line stroke="black" x1="420" x2="422" y1="310" y2="340" /><rect fill="magenta" height="10" width="10" x="412" y="330" /><rect fill="cyan" height="10" width="10" x="422" y="330" /><rect fill="cyan" height="10" width="10" x="412" y="340" /><circle cx="417" cy="345" fill="white" r="3" /><rect fill="cyan" height="10" width="10" x="422" y="340" /><line stroke="black" x1="422" x2="402" y1="340" y2="370" /><rect fill="magenta" height="10" width="10" x="392" y="360" /><rect fill="cyan" height="10" width="10" x="402" y="360" /><rect fill="cyan" height="10" width="10" x="392" y="370" /><rect fill="cyan" height="10" width="10" x="402" y="370" /><circle cx="407" cy="375" fill="white" r="3" /><line stroke="black" x1="422" x2="424" y1="340" y2="370" /><rect fill="cyan" height="10" width="10" x="414" y="360" /><circle cx="419" cy="365" fill="white" r="3" /><rect fill="cyan" height="10" width="10" x="424" y="360" /><rect fill="magenta" height="10" width="10" x="414" y="370" /><rect fill="cyan" height="10" width="10" x="424" y="370" /><line stroke="black" x1="356" x2="336" y1="340" y2="370" /><rect fill="magenta" height="10" width="10" x="326" y="360" /><rect fill="cyan" height="10" width="10" x="336" y="360" /><rect fill="cyan" height="10" width="10" x="326" y="370" /><circle cx="331" cy="375" fill="white" r="3" /><rect fill="magenta" height="10" width="10" x="336" y="370" /><line stroke="black" x1="356" x2="358" y1="340" y2="370" /><rect fill="cyan" height="10" width="10" x="348" y="360" /><rect fill="cyan" height="10" width="10" x="358" y="360" /><rect fill="magenta" height="10" width="10" x="348" y="370" /><rect fill="cyan" height="10" width="10" x="358" y="370" /><circle cx="363" cy="375" fill="white" r="3" /><line stroke="black" x1="356" x2="380" y1="340" y2="370" /><rect fill="magenta" height="10" width="10" x="370" y="360" /><rect fill="cyan" height="10" width="10" x="380" y="360" /><circle cx="385" cy="365" fill="white" r="3" /><rect fill="magenta" height="10" width="10" x="370" y="370" /><rect fill="cyan" height="10" width="10" x="380" y="370" /><line stroke="black" x1="402" x2="382" y1="370" y2="400" /><rect fill="cyan" height="10" width="10" x="372" y="390" /><rect fill="cyan" height="10" width="10" x="382" y="390" /><rect fill="cyan" height="10" width="10" x="372" y="400" /><rect fill="cyan" height="10" width="10" x="382" y="400" /><circle cx="387" cy="405" fill="white" r="3" /><line stroke="black" x1="402" x2="404" y1="370" y2="400" /><rect fill="magenta" height="10" width="10" x="394" y="390" /><rect fill="cyan" height="10" width="10" x="404" y="390" /><rect fill="cyan" height="10" width="10" x="394" y="400" /><circle cx="399" cy="405" fill="white" r="3" /><rect fill="cyan" height="10" width="10" x="404" y="400" /></svg>