<?xml version="1.0" encoding="utf-8" ?>
<svg baseProfile="tiny" height="600" version="1.2" width="800" xmlns="http://www.w3.org/2000/svg" xmlns:ev="http://www.w3.org/2001/xml-events" xmlns:xlink="http://www.w3.org/1999/xlink"><defs /><rect fill="magenta" height="10" width="10" x="390" y="0" /><circle cx="395" cy="5" fill="white" r="3" /><rect fill="cyan" height="10" width="10" x="400" y="0" /><rect fill="cyan" height="10" width="10" x="390" y="10" /><rect fill="cyan" height="10" width="10" x="400" y="10" /><line stroke="black" x1="400" x2="380" y1="10" y2="40" /><rect fill="cyan" height="10" width="10" x="370" y="30" /><rect fill="cyan" height="10" width="10" x="380" y="30" /><rect fill="magenta" height="10" width="10" x="370" y="40" /><circle cx="375" cy="45" fill="white" r="3" /><rect fill="cyan" height="10" width="10" x="380" y="40" /><line stroke="black" x1="400" x2="402" y1="10" y2="40" /><rect fill="magenta" height="10" width="10" x="392" y="30" /><circle cx="397" cy="35" fill="white" r="3" /><rect fill="cyan" height="10" width="10" x="402" y="30" /><rect fill="cyan" height="10" width="10" x="392" y="40" /><rect fill="magenta" height="10" width="10" x="402" y="40" /><line stroke="black" x1="400" x2="424" y1="10" y2="40" /><rect fill="cyan" height="10" width="10" x="414" y="30" /><rect fill="magenta" height="10" width="10" x="424" y="30" /><circle cx="429" cy="35" fill="white" r="3" /><rect fill="cyan" height="10" width="10" x="414" y="40" /><rect fill="cyan" height="10" width="10" x="424" y="40" /><line stroke="black" x1="402" x2="350" y1="40" y2="70" /><rect fill="cyan" height="10" width="10" x="340" y="60" /><rect fill="cyan" height="10" width="10" x="350" y="60" /><rect fill="magenta" height="10" width="10" x="340" y="70" /><circle cx="345" cy="75" fill="white" r="3" /><rect fill="magenta" height="10" width="10" x="350" y="70" /><line stroke="black" x1="402" x2="372" y1="40" y2="70" /><rect fill="cyan" height="10" width="10" x="362" y="60" /><rect fill="magenta" height="10" width="10" x="372" y="60" /><circle cx="377" cy="65" fill="white" r="3" /><rect fill="cyan" height="10" width="10" x="362" y="70" /><rect fill="magenta" height="10" width="10" x="372" y="70" /><line stroke="black" x1="424" x2="414" y1="40" y2="70" /><rect fill="magenta" height="10" width="10" x="404" y="60" /><circle cx="409" cy="65" fill="white" r="3" /><rect fill="cyan" height="10" width="10" x="414" y="60" /><rect fill="cyan" height="10" width="10" x="404" y="70" /><rect fill="cyan" height="10" width="10" x="414" y="70" /><line stroke="black" x1="424" x2="436" y1="40" y2="70" /><rect fill="cyan" height="10" width="10" x="426" y="60" /><rect fill="magenta" height="10" width="10" x="436" y="60" /><circle cx="441" cy="65" fill="white" r="3" /><rect fill="magenta" height="10" width="10" x="426" y="70" /><rect fill="cyan" height="10" width="10" x="436" y="70" /><line stroke="black" x1="424" x2="458" y1="40" y2="70" /><rect fill="cyan" height="10" width="10" x="448" y="60" /><rect fill="cyan" height="10" width="10" x="458" y="60" /><rect fill="cyan" height="10" width="10" x="448" y="70" /><rect fill="magenta" height="10" width="10" x="458" y="70" /><circle cx="463" cy="75" fill="white" r="3" /><line stroke="black" x1="458" x2="340" y1="70" y2="100" /><rect fill="cyan" height="10" width="10" x="330" y="90" /><rect fill="cyan" height="10" width="10" x="340" y="90" /><rect fill="magenta" height="10" width="10" x="330" y="100" /><circle cx="335" cy="105" fill="white" r="3" /><rect fill="cyan" height="10" width="10" x="340" y="100" /><line stroke="black" x1="458" x2="362" y1="70" y2="100" /><rect fill="magenta" height="10" width="10" x="352" y="90" /><rect fill="cyan" height="10" width="10" x="362" y="90" /><rect fill="cyan" height="10" width="10" x="352" y="100" /><rect fill="magenta" height="10" width="10" x="362" y="100" /><circle cx="367" cy="105" fill="white" r="3" /><line stroke="black" x1="458" x2="384" y1="70" y2="100" /><rect fill="cyan" height="10" width="10" x="374" y="90" /><rect fill="magenta" height="10" width="10" x="384" y="90" /><circle cx="389" cy="95" fill="white" r="3" /><rect fill="cyan" height="10" width="10" x="374" y="100" /><rect fill="cyan" height="10" width="10" x="384" y="100" /><line stroke="black" x1="372" x2="426" y1="70" y2="100" /><rect fill="magenta" height="10" width="10" x="416" y="90" /><circle cx="421" cy="95" fill="white" r="3" /><rect fill="cyan" height="10" width="10" x="426" y="90" /><rect fill="cyan" height="10" width="10" x="416" y="100" /><rect fill="magenta" height="10" width="10" x="426" y="100" /><line stroke="black" x1="372" x2="448" y1="70" y2="100" /><rect fill="cyan" height="10" width="10" x="438" y="90" /><rect fill="magenta" height="10" width="10" x="448" y="90" /><circle cx="453" cy="95" fill="white" r="3" /><rect fill="magenta" height="10" width="10" x="438" y="100" /><rect fill="magenta" height="10" width="10" x="448" y="100" /><line stroke="black" x1="372" x2="470" y1="70" y2="100" /><rect fill="cyan" height="10" width="10" x="460" y="90" /><rect fill="magenta" height="10" width="10" x="470" y="90" /><rect fill="cyan" height="10" width="10" x="460" y="100" /><rect fill="magenta" height="10" width="10" x="470" y="100" /><circle cx="475" cy="105" fill="white" r="3" /><line stroke="black" x1="340" x2="310" y1="100" y2="130" /><rect fill="magenta" height="10" width="10" x="300" y="120" /><circle cx="305" cy="125" fill="white" r="3" /><rect fill="cyan" height="10" width="10" x="310" y="120" /><rect fill="cyan" height="10" width="10" x="300" y="130" /><rect fill="cyan" height="10" width="10" x="310" y="130" /><line stroke="black" x1="340" x2="332" y1="100" y2="130" /><rect fill="cyan" height="10" width="10" x="322" y="120" /><rect fill="cyan" height="10" width="10" x="332" y="120" /><rect fill="cyan" height="10" width="10" x="322" y="130" /><rect fill="magenta" height="10" width="10" x="332" y="130" /><circle cx="337" cy="135" fill="white" r="3" /><line stroke="black" x1="340" x2="354" y1="100" y2="130" /><rect fill="cyan" height="10" width="10" x="344" y="120" /><rect fill="magenta" height="10" width="10" x="354" y="120" /><rect fill="magenta" height="10" width="10" x="344" y="130" /><circle cx="349" cy="135" fill="white" r="3" /><rect fill="cyan" height="10" width="10" x="354" y="130" /><line stroke="black" x1="448" x2="396" y1="100" y2="130" /><rect fill="cyan" height="10" width="10" x="386" y="120" /><rect fill="magenta" height="10" width="10" x="396" y="120" /><rect fill="magenta" height="10" width="10" x="386" y="130" /><rect fill="magenta" height="10" width="10" x="396" y="130" /><circle cx="401" cy="135" fill="white" r="3" /><line stroke="black" x1="448" x2="418" y1="100" y2="130" /><rect fill="magenta" height="10" width="10" x="408" y="120" /><circle cx="413" cy="125" fill="white" r="3" /><rect fill="cyan" height="10" width="10" x="418" y="120" /><rect fill="magenta" height="10" width="10" x="408" y="130" /><rect fill="magenta" height="10" width="10" x="418" y="130" /><line stroke="black" x1="470" x2="460" y1="100" y2="130" /><rect fill="magenta" height="10" width="10" x="450" y="120" /><rect fill="magenta" height="10" width="10" x="460" y="120" /><rect fill="cyan" height="10" width="10" x="450" y="130" /><rect fill="magenta" height="10" width="10" x="460" y="130" /><circle cx="465" cy="135" fill="white" r="3" /><line stroke="black" x1="470" x2="482" y1="100" y2="130" /><rect fill="cyan" height="10" width="10" x="472" y="120" /><rect fill="magenta" height="10" width="10" x="482" y="120" /><circle cx="487" cy="125" fill="white" r="3" /><rect fill="cyan" height="10" width="10" x="472" y="130" /><rect fill="magenta" height="10" width="10" x="482" y="130" /><line stroke="black" x1="470" x2="504" y1="100" y2="130" /><rect fill="cyan" height="10" width="10" x="494" y="120" /><rect fill="magenta" height="10" width="10" x="504" y="120" /><rect fill="magenta" height="10" width="10" x="494" y="130" /><circle cx="499" cy="135" fill="white" r="3" /><rect fill="cyan" height="10" width="10" x="504" y="130" /><line stroke="black" x1="504" x2="360" y1="130" y2="160" /><rect fill="magenta" height="10" width="10" x="350" y="150" /><circle cx="355" cy="155" fill="white" r="3" /><rect fill="magenta" height="10" width="10" x="360" y="150" /><rect fill="cyan" height="10" width="10" x="350" y="160" /><rect fill="cyan" height="10" width="10" x="360" y="160" /><line stroke="black" x1="504" x2="382" y1="130" y2="160" /><rect fill="cyan" height="10" width="10" x="372" y="150" /><rect fill="magenta" height="10" width="10" x="382" y="150" /><rect fill="cyan" height="10" width="10" x="372" y="160" /><rect fill="magenta" height="10" width="10" x="382" y="160" /><circle cx="387" cy="165" fill="white" r="3" /><line stroke="black" x1="418" x2="424" y1="130" y2="160" /><rect fill="magenta" height="10" width="10" x="414" y="150" /><rect fill="cyan" height="10" width="10" x="424" y="150" /><rect fill="magenta" height="10" width="10" x="414" y="160" /><circle cx="419" cy="165" fill="white" r="3" /><rect fill="magenta" height="10" width="10" x="424" y="160" /><line stroke="black" x1="418" x2="446" y1="130" y2="160" /><rect fill="cyan" height="10" width="10" x="436" y="150" /><rect fill="magenta" height="10" width="10" x="446" y="150" /><circle cx="451" cy="155" fill="white" r="3" /><rect fill="magenta" height="10" width="10" x="436" y="160" /><rect fill="magenta" height="10" width="10" x="446" y="160" /><line stroke="black" x1="360" x2="350" y1="160" y2="190" /><rect fill="cyan" height="10" width="10" x="340" y="180" /><rect fill="magenta" height="10" width="10" x="350" y="180" /><rect fill="magenta" height="10" width="10" x="340" y="190" /><circle cx="345" cy="195" fill="white" r="3" /><rect fill="cyan" height="10" width="10" x="350" y="190" /><line stroke="black" x1="360" x2="372" y1="160" y2="190" /><rect fill="magenta" height="10" width="10" x="362" y="180" /><rect fill="magenta" height="10" width="10" x="372" y="180" /><circle cx="377" cy="185" fill="white" r="3" /><rect fill="cyan" height="10" width="10" x="362" y="190" /><rect fill="cyan" height="10" width="10" x="372" y="190" /><line stroke="black" x1="360" x2="394" y1="160" y2="190" /><rect fill="magenta" height="10" width="10" x="384" y="180" /><circle cx="389" cy="185" fill="white" r="3" /><rect fill="magenta" height="10" width="10" x="394" y="180" /><rect fill="cyan" height="10" width="10" x="384" y="190" /><rect fill="magenta" height="10" width="10" x="394" y="190" /><line stroke="black" x1="424" x2="436" y1="160" y2="190" /><rect fill="magenta" height="10" width="10" x="426" y="180" /><rect fill="cyan" height="10" width="10" x="436" y="180" /><rect fill="magenta" height="10" width="10" x="426" y="190" /><rect fill="magenta" height="10" width="10" x="436" y="190" /><circle cx="441" cy="195" fill="white" r="3" /><line stroke="black" x1="424" x2="458" y1="160" y2="190" /><rect fill="magenta" height="10" width="10" x="448" y="180" /><rect fill="magenta" height="10" width="10" x="458" y="180" /><rect fill="magenta" height="10" width="10" x="448" y="190" /><circle cx="453" cy="195" fill="white" r="3" /><rect fill="magenta" height="10" width="10" x="458" y="190" /><line stroke="black" x1="436" x2="350" y1="190" y2="220" /><rect fill="magenta" height="10" width="10" x="340" y="210" /><rect fill="magenta" height="10" width="10" x="350" y="210" /><circle cx="355" cy="215" fill="white" r="3" /><rect fill="magenta" height="10" width="10" x="340" y="220" /><rect fill="cyan" height="10" width="10" x="350" y="220" /><line stroke="black" x1="436" x2="372" y1="190" y2="220" /><rect fill="magenta" height="10" width="10" x="362" y="210" /><rect fill="cyan" height="10" width="10" x="372" y="210" /><rect fill="magenta" height="10" width="10" x="362" y="220" /><circle cx="367" cy="225" fill="white" r="3" /><rect fill="magenta" height="10" width="10" x="372" y="220" /><line stroke="black" x1="372" x2="414" y1="190" y2="220" /><rect fill="magenta" height="10" width="10" x="404" y="210" /><circle cx="409" cy="215" fill="white" r="3" /><rect fill="magenta" height="10" width="10" x="414" y="210" /><rect fill="cyan" height="10" width="10" x="404" y="220" /><rect fill="cyan" height="10" width="10" x="414" y="220" /><line stroke="black" x1="372" x2="436" y1="190" y2="220" /><rect fill="magenta" height="10" width="10" x="426" y="210" /><rect fill="magenta" height="10" width="10" x="436" y="210" /><circle cx="441" cy="215" fill="white" r="3" /><rect fill="magenta" height="10" width="10" x="426" y="220" /><rect fill="cyan" height="10" width="10" x="436" y="220" /><line stroke="black" x1="372" x2="458" y1="190" y2="220" /><rect fill="magenta" height="10" width="10" x="448" y="210" /><rect fill="cyan" height="10" width="10" x="458" y="210" /><rect fill="cyan" height="10" width="10" x="448" y="220" /><rect fill="magenta" height="10" width="10" x="458" y="220" /><circle cx="463" cy="225" fill="white" r="3" /><line stroke="black" x1="458" x2="360" y1="220" y2="250" /><rect fill="magenta" height="10" width="10" x="350" y="240" /><rect fill="cyan" height="10" width="10" x="360" y="240" /><rect fill="magenta" height="10" width="10" x="350" y="250" /><circle cx="355" cy="255" fill="white" r="3" /><rect fill="cyan" height="10" width="10" x="360" y="250" /><line stroke="black" x1="458" x2="382" y1="220" y2="250" /><rect fill="magenta" height="10" width="10" x="372" y="240" /><rect fill="magenta" height="10" width="10" x="382" y="240" /><circle cx="387" cy="245" fill="white" r="3" /><rect fill="cyan" height="10" width="10" x="372" y="250" /><rect fill="cyan" height="10" width="10" x="382" y="250" /><line stroke="black" x1="436" x2="424" y1="220" y2="250" /><rect fill="magenta" height="10" width="10" x="414" y="240" /><circle cx="419" cy="245" fill="white" r="3" /><rect fill="magenta" height="10" width="10" x="424" y="240" /><rect fill="magenta" height="10" width="10" x="414" y="250" /><rect fill="cyan" height="10" width="10" x="424" y="250" /><line stroke="black" x1="436" x2="446" y1="220" y2="250" /><rect fill="magenta" height="10" width="10" x="436" y="240" /><rect fill="cyan" height="10" width="10" x="446" y="240" /><rect fill="magenta" height="10" width="10" x="436" y="250" /><rect fill="magenta" height="10" width="10" x="446" y="250" /><circle cx="451" cy="255" fill="white" r="3" /><line stroke="black" x1="424" x2="350" y1="250" y2="280" /><rect fill="magenta" height="10" width="10" x="340" y="270" /><rect fill="magenta" height="10" width="10" x="350" y="270" /><circle cx="355" cy="275" fill="white" r="3" /><rect fill="magenta" height="10" width="10" x="340" y="280" /><rect fill="cyan" height="10" width="10" x="350" y="280" /><line stroke="black" x1="424" x2="372" y1="250" y2="280" /><rect fill="magenta" height="10" width="10" x="362" y="270" /><circle cx="367" cy="275" fill="white" r="3" /><rect fill="magenta" height="10" width="10" x="372" y="270" /><rect fill="magenta" height="10" width="10" x="362" y="280" /><rect fill="magenta" height="10" width="10" x="372" y="280" /><line stroke="black" x1="360" x2="414" y1="250" y2="280" /><rect fill="magenta" height="10" width="10" x="404" y="270" /><rect fill="cyan" height="10" width="10" x="414" y="270" /><rect fill="cyan" height="10" width="10" x="404" y="280" /><rect fill="magenta" height="10" width="10" x="414" y="280" /><circle cx="419" cy="285" fill="white" r="3" /><line stroke="black" x1="360" x2="436" y1="250" y2="280" /><rect fill="magenta" height="10" width="10" x="426" y="270" /><rect fill="magenta" height="10" width="10" x="436" y="270" /><rect fill="magenta" height="10" width="10" x="426" y="280" /><circle cx="431" cy="285" fill="white" r="3" /><rect fill="cyan" height="10" width="10" x="436" y="280" /><line stroke="black" x1="360" x2="458" y1="250" y2="280" /><rect fill="magenta" height="10" width="10" x="448" y="270" /><circle cx="453" cy="275" fill="white" r="3" /><rect fill="cyan" height="10" width="10" x="458" y="270" /><rect fill="magenta" height="10" width="10" x="448" y="280" /><rect fill="cyan" height="10" width="10" x="458" y="280" /><line stroke="black" x1="458" x2="350" y1="280" y2="310" /><rect fill="magenta" height="10" width="10" x="340" y="300" /><rect fill="cyan" height="10" width="10" x="350" y="300" /><rect fill="magenta" height="10" width="10" x="340" y="310" /><circle cx="345" cy="315" fill="white" r="3" /><rect fill="cyan" height="10" width="10" x="350" y="310" /><line stroke="black" x1="458" x2="372" y1="280" y2="310" /><rect fill="cyan" height="10" width="10" x="362" y="300" /><rect fill="magenta" height="10" width="10" x="372" y="300" /><circle cx="377" cy="305" fill="white" r="3" /><rect fill="magenta" height="10" width="10" x="362" y="310" /><rect fill="cyan" height="10" width="10" x="372" y="310" /><line stroke="black" x1="458" x2="394" y1="280" y2="310" /><rect fill="magenta" height="10" width="10" x="384" y="300" /><circle cx="389" cy="305" fill="white" r="3" /><rect fill="cyan" height="10" width="10" x="394" y="300" /><rect fill="magenta" height="10" width="10" x="384" y="310" /><rect fill="magenta" height="10" width="10" x="394" y="310" /><line stroke="black" x1="436" x2="436" y1="280" y2="310" /><rect fill="magenta" height="10" width="10" x="426" y="300" /><rect fill="magenta" height="10" width="10" x="436" y="300" /><rect fill="cyan" height="10" width="10" x="426" y="310" /><rect fill="magenta" height="10" width="10" x="436" y="310" /><circle cx="441" cy="315" fill="white" r="3" /><line stroke="black" x1="436" x2="458" y1="280" y2="310" /><rect fill="magenta" height="10" width="10" x="448" y="300" /><circle cx="453" cy="305" fill="white" r="3" /><rect fill="magenta" height="10" width="10" x="458" y="300" /><rect fill="magenta" height="10" width="10" x="448" y="310" /><rect fill="cyan" height="10" width="10" x="458" y="310" /><line stroke="black" x1="436" x2="360" y1="310" y2="340" /><rect fill="magenta" height="10" width="10" x="350" y="330" /><rect fill="magenta" height="10" width="10" x="360" y="330" /><rect fill="magenta" height="10" width="10" x="350" y="340" /><circle cx="355" cy="345" fill="white" r="3" /><rect fill="cyan" height="10" width="10" x="360" y="340" /><line stroke="black" x1="436" x2="382" y1="310" y2="340" /><rect fill="magenta" height="10" width="10" x="372" y="330" /><rect fill="magenta" height="10" width="10" x="382" y="330" /><circle cx="387" cy="335" fill="white" r="3" /><rect fill="cyan" height="10" width="10" x="372" y="340" /><rect fill="magenta" height="10" width="10" x="382" y="340" /><line stroke="black" x1="372" x2="424" y1="310" y2="340" /><rect fill="cyan" height="10" width="10" x="414" y="330" /><rect fill="cyan" height="10" width="10" x="424" y="330" /><rect fill="magenta" height="10" width="10" x="414" y="340" /><rect fill="magenta" height="10" width="10" x="424" y="340" /><circle cx="429" cy="345" fill="white" r="3" /><line stroke="black" x1="372" x2="446" y1="310" y2="340" /><rect fill="magenta" height="10" width="10" x="436" y="330" /><circle cx="441" cy="335" fill="white" r="3" /><rect fill="cyan" height="10" width="10" x="446" y="330" /><rect fill="magenta" height="10" width="10" x="436" y="340" /><rect fill="cyan" height="10" width="10" x="446" y="340" /><line stroke="black" x1="424" x2="350" y1="340" y2="370" /><rect fill="magenta" height="10" width="10" x="340" y="360" /><rect fill="cyan" height="10" width="10" x="350" y="360" /><rect fill="magenta" height="10" width="10" x="340" y="370" /><rect fill="magenta" height="10" width="10" x="350" y="370" /><circle cx="355" cy="375" fill="white" r="3" /><line stroke="black" x1="424" x2="372" y1="340" y2="370" /><rect fill="cyan" height="10" width="10" x="362" y="360" /><rect fill="magenta" height="10" width="10" x="372" y="360" /><circle cx="377" cy="365" fill="white" r="3" /><rect fill="magenta" height="10" width="10" x="362" y="370" /><rect fill="cyan" height="10" width="10" x="372" y="370" /><line stroke="black" x1="424" x2="394" y1="340" y2="370" /><rect fill="cyan" height="10" width="10" x="384" y="360" /><rect fill="cyan" height="10" width="10" x="394" y="360" /><rect fill="magenta" height="10" width="10" x="384" y="370" /><circle cx="389" cy="375" fill="white" r="3" /><rect fill="magenta" height="10" width="10" x="394" y="370" /><line stroke="black" x1="382" x2="436" y1="340" y2="370" /><rect fill="magenta" height="10" width="10" x="426" y="360" /><rect fill="magenta" height="10" width="10" x="436" y="360" /><circle cx="441" cy="365" fill="white" r="3" /><rect fill="magenta" height="10" width="10" x="426" y="370" /><rect fill="magenta" height="10" width="10" x="436" y="370" /><line stroke="black" x1="382" x2="458" y1="340" y2="370" /><rect fill="magenta" height="10" width="10" x="448" y="360" /><circle cx="453" cy="365" fill="white" r="3" /><rect fill="magenta" height="10" width="10" x="458" y="360" /><rect fill="cyan" height="10" width="10" x="448" y="370" /><rect fill="magenta" height="10" width="10" x="458" y="370" /><line stroke="black" x1="458" x2="350" y1="370" y2="400" /><rect fill="cyan" height="10" width="10" x="340" y="390" /><rect fill="magenta" height="10" width="10" x="350" y="390" /><rect fill="magenta" height="10" width="10" x="340" y="400" /><circle cx="345" cy="405" fill="white" r="3" /><rect fill="magenta" height="10" width="10" x="350" y="400" /><line stroke="black" x1="458" x2="372" y1="370" y2="400" /><rect fill="magenta" height="10" width="10" x="362" y="390" /><rect fill="magenta" height="10" width="10" x="372" y="390" /><circle cx="377" cy="395" fill="white" r="3" /><rect fill="cyan" height="10" width="10" x="362" y="400" /><rect fill="magenta" height="10" width="10" x="372" y="400" /><line stroke="black" x1="394" x2="414" y1="370" y2="400" /><rect fill="cyan" height="10" width="10" x="404" y="390" /><rect fill="cyan" height="10" width="10" x="414" y="390" /><rect fill="magenta" height="10" width="10" x="404" y="400" /><rect fill="magenta" height="10" width="10" x="414" y="400" /><circle cx="419" cy="405" fill="white" r="3" /><line stroke="black" x1="394" x2="436" y1="370" y2="400" /><rect fill="cyan" height="10" width="10" x="426" y="390" /><rect fill="magenta" height="10" width="10" x="436" y="390" /><rect fill="magenta" height="10" width="10" x="426" y="400" /><circle cx="431" cy="405" fill="white" r="3" /><rect fill="magenta" height="10" width="10" x="436" y="400" /><line stroke="black" x1="394" x2="458" y1="370" y2="400" /><rect fill="magenta" height="10" width="10" x="448" y="390" /><circle cx="453" cy="395" fill="white" r="3" /><rect fill="cyan" height="10" width="10" x="458" y="390" /><rect fill="cyan" height="10" width="10" x="448" y="400" /><rect fill="magenta" height="10" width="10" x="458" y="400" /><line stroke="black" x1="436" x2="390" y1="400" y2="430" /><rect fill="magenta" height="10" width="10" x="380" y="420" /><circle cx="385" cy="425" fill="white" r="3" /><rect fill="magenta" height="10" width="10" x="390" y="420" /><rect fill="cyan" height="10" width="10" x="380" y="430" /><rect fill="magenta" height="10" width="10" x="390" y="430" /><line stroke="black" x1="436" x2="412" y1="400" y2="430" /><rect fill="cyan" height="10" width="10" x="402" y="420" /><rect fill="magenta" height="10" width="10" x="412" y="420" /><rect fill="magenta" height="10" width="10" x="402" y="430" /><rect fill="magenta" height="10" width="10" x="412" y="430" /><circle cx="417" cy="435" fill="white" r="3" /><line stroke="black" x1="412" x2="390" y1="430" y2="460" /><rect fill="magenta" height="10" width="10" x="380" y="450" /><rect fill="magenta" height="10" width="10" x="390" y="450" /><rect fill="magenta" height="10" width="10" x="380" y="460" /><rect fill="magenta" height="10" width="10" x="390" y="460" /><circle cx="395" cy="465" fill="white" r="3" /><line stroke="black" x1="412" x2="412" y1="430" y2="460" /><rect fill="cyan" height="10" width="10" x="402" y="450" /><rect fill="magenta" height="10" width="10" x="412" y="450" /><rect fill="magenta" height="10" width="10" x="402" y="460" /><circle cx="407" cy="465" fill="white" r="3" /><rect fill="magenta" height="10" width="10" x="412" y="460" /></svg>