<?xml version="1.0" encoding="utf-8" ?>
<svg baseProfile="tiny" height="600" version="1.2" width="800" xmlns="http://www.w3.org/2000/svg" xmlns:ev="http://www.w3.org/2001/xml-events" xmlns:xlink="http://www.w3.org/1999/xlink"><defs /><rect fill="magenta" height="10" width="10" x="390" y="0" /><rect fill="cyan" height="10" width="10" x="400" y="0" /><rect fill="magenta" height="10" width="10" x="390" y="10" /><rect fill="cyan" height="10" width="10" x="400" y="10" /><circle cx="405" cy="15" fill="white" r="3" /><line stroke="black" x1="400" x2="380" y1="10" y2="40" /><rect fill="magenta" height="10" width="10" x="370" y="30" /><rect fill="cyan" height="10" width="10" x="380" y="30" /><rect fill="cyan" height="10" width="10" x="370" y="40" /><circle cx="375" cy="45" fill="white" r="3" /><rect fill="magenta" height="10" width="10" x="380" y="40" /><line stroke="black" x1="400" x2="402" y1="10" y2="40" /><rect fill="magenta" height="10" width="10" x="392" y="30" /><rect fill="cyan" height="10" width="10" x="402" y="30" /><circle cx="407" cy="35" fill="white" r="3" /><rect fill="magenta" height="10" width="10" x="392" y="40" /><rect fill="cyan" height="10" width="10" x="402" y="40" /><line stroke="black" x1="400" x2="424" y1="10" y2="40" /><rect fill="cyan" height="10" width="10" x="414" y="30" /><rect fill="cyan" height="10" width="10" x="424" y="30" /><rect fill="magenta" height="10" width="10" x="414" y="40" /><rect fill="cyan" height="10" width="10" x="424" y="40" /><circle cx="429" cy="45" fill="white" r="3" /><line stroke="black" x1="380" x2="360" y1="40" y2="70" /><rect fill="magenta" height="10" width="10" x="350" y="60" /><rect fill="cyan" height="10" width="10" x="360" y="60" /><rect fill="magenta" height="10" width="10" x="350" y="70" /><rect fill="cyan" height="10" width="10" x="360" y="70" /><circle cx="365" cy="75" fill="white" r="3" /><line stroke="black" x1="380" x2="382" y1="40" y2="70" /><rect fill="cyan" height="10" width="10" x="372" y="60" /><circle cx="377" cy="65" fill="white" r="3" /><rect fill="cyan" height="10" width="10" x="382" y="60" /><rect fill="magenta" height="10" width="10" x="372" y="70" /><rect fill="magenta" height="10" width="10" x="382" y="70" /><line stroke="black" x1="424" x2="404" y1="40" y2="70" /><rect fill="cyan" height="10" width="10" x="394" y="60" /><rect fill="cyan" height="10" width="10" x="404" y="60" /><rect fill="cyan" height="10" width="10" x="394" y="70" /><circle cx="399" cy="75" fill="white" r="3" /><rect fill="magenta" height="10" width="10" x="404" y="70" /><line stroke="black" x1="424" x2="426" y1="40" y2="70" /><rect fill="cyan" height="10" width="10" x="416" y="60" /><rect fill="cyan" height="10" width="10" x="426" y="60" /><circle cx="431" cy="65" fill="white" r="3" /><rect fill="magenta" height="10" width="10" x="416" y="70" /><rect fill="cyan" height="10" width="10" x="426" y="70" /><line stroke="black" x1="404" x2="384" y1="70" y2="100" /><rect fill="cyan" height="10" width="10" x="374" y="90" /><rect fill="cyan" height="10" width="10" x="384" y="90" /><rect fill="magenta" height="10" width="10" x="374" y="100" /><rect fill="cyan" height="10" width="10" x="384" y="100" /><circle cx="389" cy="105" fill="white" r="3" /><line stroke="black" x1="404" x2="406" y1="70" y2="100" /><rect fill="cyan" height="10" width="10" x="396" y="90" /><circle cx="401" cy="95" fill="white" r="3" /><rect fill="cyan" height="10" width="10" x="406" y="90" /><rect fill="cyan" height="10" width="10" x="396" y="100" /><rect fill="magenta" height="10" width="10" x="406" y="100" /><line stroke="black" x1="382" x2="362" y1="70" y2="100" /><rect fill="cyan" height="10" width="10" x="352" y="90" /><rect fill="cyan" height="10" width="10" x="362" y="90" /><circle cx="367" cy="95" fill="white" r="3" /><rect fill="magenta" height="10" width="10" x="352" y="100" /><rect fill="magenta" height="10" width="10" x="362" y="100" /><line stroke="black" x1="382" x2="384" y1="70" y2="100" /><rect fill="cyan" height="10" width="10" x="374" y="90" /><circle cx="379" cy="95" fill="white" r="3" /><rect fill="cyan" height="10" width="10" x="384" y="90" /><rect fill="magenta" height="10" width="10" x="374" y="100" /><rect fill="cyan" height="10" width="10" x="384" y="100" /><line stroke="black" x1="382" x2="406" y1="70" y2="100" /><rect fill="magenta" height="10" width="10" x="396" y="90" /><rect fill="cyan" height="10" width="10" x="406" y="90" /><rect fill="cyan" height="10" width="10" x="396" y="100" /><circle cx="401" cy="105" fill="white" r="3" /><rect fill="magenta" height="10" width="10" x="406" y="100" /><line stroke="black" x1="362" x2="342" y1="100" y2="130" /><rect fill="cyan" height="10" width="10" x="332" y="120" /><circle cx="337" cy="125" fill="white" r="3" /><rect fill="cyan" height="10" width="10" x="342" y="120" /><rect fill="magenta" height="10" width="10" x="332" y="130" /><rect fill="magenta" height="10" width="10" x="342" y="130" /><line stroke="black" x1="362" x2="364" y1="100" y2="130" /><rect fill="cyan" height="10" width="10" x="354" y="120" /><rect fill="cyan" height="10" width="10" x="364" y="120" /><circle cx="369" cy="125" fill="white" r="3" /><rect fill="cyan" height="10" width="10" x="354" y="130" /><rect fill="magenta" height="10" width="10" x="364" y="130" /><line stroke="black" x1="362" x2="386" y1="100" y2="130" /><rect fill="cyan" height="10" width="10" x="376" y="120" /><rect fill="magenta" height="10" width="10" x="386" y="120" /><rect fill="magenta" height="10" width="10" x="376" y="130" /><rect fill="cyan" height="10" width="10" x="386" y="130" /><circle cx="391" cy="135" fill="white" r="3" /><line stroke="black" x1="406" x2="386" y1="100" y2="130" /><rect fill="cyan" height="10" width="10" x="376" y="120" /><circle cx="381" cy="125" fill="white" r="3" /><rect fill="cyan" height="10" width="10" x="386" y="120" /><rect fill="cyan" height="10" width="10" x="376" y="130" /><rect fill="cyan" height="10" width="10" x="386" y="130" /><line stroke="black" x1="406" x2="408" y1="100" y2="130" /><rect fill="cyan" height="10" width="10" x="398" y="120" /><rect fill="cyan" height="10" width="10" x="408" y="120" /><circle cx="413" cy="125" fill="white" r="3" /><rect fill="cyan" height="10" width="10" x="398" y="130" /><rect fill="magenta" height="10" width="10" x="408" y="130" /><line stroke="black" x1="408" x2="388" y1="130" y2="160" /><rect fill="cyan" height="10" width="10" x="378" y="150" /><rect fill="magenta" height="10" width="10" x="388" y="150" /><rect fill="cyan" height="10" width="10" x="378" y="160" /><rect fill="cyan" height="10" width="10" x="388" y="160" /><circle cx="393" cy="165" fill="white" r="3" /><line stroke="black" x1="408" x2="410" y1="130" y2="160" /><rect fill="cyan" height="10" width="10" x="400" y="150" /><circle cx="405" cy="155" fill="white" r="3" /><rect fill="cyan" height="10" width="10" x="410" y="150" /><rect fill="cyan" height="10" width="10" x="400" y="160" /><rect fill="magenta" height="10" width="10" x="410" y="160" /><line stroke="black" x1="386" x2="366" y1="130" y2="160" /><rect fill="cyan" height="10" width="10" x="356" y="150" /><rect fill="magenta" height="10" width="10" x="366" y="150" /><rect fill="cyan" height="10" width="10" x="356" y="160" /><circle cx="361" cy="165" fill="white" r="3" /><rect fill="magenta" height="10" width="10" x="366" y="160" /><line stroke="black" x1="386" x2="388" y1="130" y2="160" /><rect fill="cyan" height="10" width="10" x="378" y="150" /><rect fill="cyan" height="10" width="10" x="388" y="150" /><circle cx="393" cy="155" fill="white" r="3" /><rect fill="magenta" height="10" width="10" x="378" y="160" /><rect fill="magenta" height="10" width="10" x="388" y="160" /><line stroke="black" x1="366" x2="346" y1="160" y2="190" /><rect fill="cyan" height="10" width="10" x="336" y="180" /><rect fill="cyan" height="10" width="10" x="346" y="180" /><rect fill="cyan" height="10" width="10" x="336" y="190" /><circle cx="341" cy="195" fill="white" r="3" /><rect fill="magenta" height="10" width="10" x="346" y="190" /><line stroke="black" x1="366" x2="368" y1="160" y2="190" /><rect fill="cyan" height="10" width="10" x="358" y="180" /><circle cx="363" cy="185" fill="white" r="3" /><rect fill="magenta" height="10" width="10" x="368" y="180" /><rect fill="cyan" height="10" width="10" x="358" y="190" /><rect fill="magenta" height="10" width="10" x="368" y="190" /><line stroke="black" x1="366" x2="390" y1="160" y2="190" /><rect fill="cyan" height="10" width="10" x="380" y="180" /><rect fill="magenta" height="10" width="10" x="390" y="180" /><rect fill="magenta" height="10" width="10" x="380" y="190" /><rect fill="cyan" height="10" width="10" x="390" y="190" /><circle cx="395" cy="195" fill="white" r="3" /><line stroke="black" x1="388" x2="368" y1="160" y2="190" /><rect fill="cyan" height="10" width="10" x="358" y="180" /><rect fill="cyan" height="10" width="10" x="368" y="180" /><circle cx="373" cy="185" fill="white" r="3" /><rect fill="cyan" height="10" width="10" x="358" y="190" /><rect fill="magenta" height="10" width="10" x="368" y="190" /><line stroke="black" x1="388" x2="390" y1="160" y2="190" /><rect fill="cyan" height="10" width="10" x="380" y="180" /><rect fill="magenta" height="10" width="10" x="390" y="180" /><rect fill="cyan" height="10" width="10" x="380" y="190" /><circle cx="385" cy="195" fill="white" r="3" /><rect fill="cyan" height="10" width="10" x="390" y="190" /><line stroke="black" x1="368" x2="348" y1="190" y2="220" /><rect fill="magenta" height="10" width="10" x="338" y="210" /><rect fill="cyan" height="10" width="10" x="348" y="210" /><circle cx="353" cy="215" fill="white" r="3" /><rect fill="cyan" height="10" width="10" x="338" y="220" /><rect fill="magenta" height="10" width="10" x="348" y="220" /><line stroke="black" x1="368" x2="370" y1="190" y2="220" /><rect fill="cyan" height="10" width="10" x="360" y="210" /><rect fill="magenta" height="10" width="10" x="370" y="210" /><rect fill="cyan" height="10" width="10" x="360" y="220" /><circle cx="365" cy="225" fill="white" r="3" /><rect fill="magenta" height="10" width="10" x="370" y="220" /><line stroke="black" x1="368" x2="392" y1="190" y2="220" /><rect fill="cyan" height="10" width="10" x="382" y="210" /><circle cx="387" cy="215" fill="white" r="3" /><rect fill="magenta" height="10" width="10" x="392" y="210" /><rect fill="cyan" height="10" width="10" x="382" y="220" /><rect fill="cyan" height="10" width="10" x="392" y="220" /><line stroke="black" x1="390" x2="370" y1="190" y2="220" /><rect fill="cyan" height="10" width="10" x="360" y="210" /><rect fill="cyan" height="10" width="10" x="370" y="210" /><rect fill="cyan" height="10" width="10" x="360" y="220" /><circle cx="365" cy="225" fill="white" r="3" /><rect fill="cyan" height="10" width="10" x="370" y="220" /><line stroke="black" x1="390" x2="392" y1="190" y2="220" /><rect fill="cyan" height="10" width="10" x="382" y="210" /><rect fill="magenta" height="10" width="10" x="392" y="210" /><rect fill="cyan" height="10" width="10" x="382" y="220" /><rect fill="cyan" height="10" width="10" x="392" y="220" /><circle cx="397" cy="225" fill="white" r="3" /><line stroke="black" x1="348" x2="328" y1="220" y2="250" /><rect fill="magenta" height="10" width="10" x="318" y="240" /><rect fill="magenta" height="10" width="10" x="328" y="240" /><rect fill="cyan" height="10" width="10" x="318" y="250" /><rect fill="cyan" height="10" width="10" x="328" y="250" /><circle cx="333" cy="255" fill="white" r="3" /><line stroke="black" x1="348" x2="350" y1="220" y2="250" /><rect fill="cyan" height="10" width="10" x="340" y="240" /><circle cx="345" cy="245" fill="white" r="3" /><rect fill="magenta" height="10" width="10" x="350" y="240" /><rect fill="cyan" height="10" width="10" x="340" y="250" /><rect fill="magenta" height="10" width="10" x="350" y="250" /><line stroke="black" x1="392" x2="372" y1="220" y2="250" /><rect fill="magenta" height="10" width="10" x="362" y="240" /><rect fill="cyan" height="10" width="10" x="372" y="240" /><circle cx="377" cy="245" fill="white" r="3" /><rect fill="cyan" height="10" width="10" x="362" y="250" /><rect fill="cyan" height="10" width="10" x="372" y="250" /><line stroke="black" x1="392" x2="394" y1="220" y2="250" /><rect fill="cyan" height="10" width="10" x="384" y="240" /><rect fill="magenta" height="10" width="10" x="394" y="240" /><rect fill="cyan" height="10" width="10" x="384" y="250" /><circle cx="389" cy="255" fill="white" r="3" /><rect fill="cyan" height="10" width="10" x="394" y="250" /><line stroke="black" x1="328" x2="308" y1="250" y2="280" /><rect fill="magenta" height="10" width="10" x="298" y="270" /><rect fill="magenta" height="10" width="10" x="308" y="270" /><rect fill="cyan" height="10" width="10" x="298" y="280" /><circle cx="303" cy="285" fill="white" r="3" /><rect fill="cyan" height="10" width="10" x="308" y="280" /><line stroke="black" x1="328" x2="330" y1="250" y2="280" /><rect fill="cyan" height="10" width="10" x="320" y="270" /><rect fill="magenta" height="10" width="10" x="330" y="270" /><rect fill="cyan" height="10" width="10" x="320" y="280" /><rect fill="cyan" height="10" width="10" x="330" y="280" /><circle cx="335" cy="285" fill="white" r="3" /><line stroke="black" x1="328" x2="352" y1="250" y2="280" /><rect fill="magenta" height="10" width="10" x="342" y="270" /><rect fill="cyan" height="10" width="10" x="352" y="270" /><circle cx="357" cy="275" fill="white" r="3" /><rect fill="cyan" height="10" width="10" x="342" y="280" /><rect fill="magenta" height="10" width="10" x="352" y="280" /><line stroke="black" x1="372" x2="352" y1="250" y2="280" /><rect fill="cyan" height="10" width="10" x="342" y="270" /><circle cx="347" cy="275" fill="white" r="3" /><rect fill="magenta" height="10" width="10" x="352" y="270" /><rect fill="cyan" height="10" width="10" x="342" y="280" /><rect fill="cyan" height="10" width="10" x="352" y="280" /><line stroke="black" x1="372" x2="374" y1="250" y2="280" /><rect fill="magenta" height="10" width="10" x="364" y="270" /><rect fill="cyan" height="10" width="10" x="374" y="270" /><rect fill="cyan" height="10" width="10" x="364" y="280" /><rect fill="cyan" height="10" width="10" x="374" y="280" /><circle cx="379" cy="285" fill="white" r="3" /><line stroke="black" x1="308" x2="288" y1="280" y2="310" /><rect fill="magenta" height="10" width="10" x="278" y="300" /><rect fill="cyan" height="10" width="10" x="288" y="300" /><rect fill="cyan" height="10" width="10" x="278" y="310" /><circle cx="283" cy="315" fill="white" r="3" /><rect fill="cyan" height="10" width="10" x="288" y="310" /><line stroke="black" x1="308" x2="310" y1="280" y2="310" /><rect fill="cyan" height="10" width="10" x="300" y="300" /><circle cx="305" cy="305" fill="white" r="3" /><rect fill="magenta" height="10" width="10" x="310" y="300" /><rect fill="magenta" height="10" width="10" x="300" y="310" /><rect fill="cyan" height="10" width="10" x="310" y="310" /><line stroke="black" x1="308" x2="332" y1="280" y2="310" /><rect fill="magenta" height="10" width="10" x="322" y="300" /><rect fill="magenta" height="10" width="10" x="332" y="300" /><rect fill="cyan" height="10" width="10" x="322" y="310" /><rect fill="cyan" height="10" width="10" x="332" y="310" /><circle cx="337" cy="315" fill="white" r="3" /><line stroke="black" x1="374" x2="354" y1="280" y2="310" /><rect fill="cyan" height="10" width="10" x="344" y="300" /><rect fill="cyan" height="10" width="10" x="354" y="300" /><rect fill="cyan" height="10" width="10" x="344" y="310" /><rect fill="cyan" height="10" width="10" x="354" y="310" /><circle cx="359" cy="315" fill="white" r="3" /><line stroke="black" x1="374" x2="376" y1="280" y2="310" /><rect fill="magenta" height="10" width="10" x="366" y="300" /><rect fill="cyan" height="10" width="10" x="376" y="300" /><rect fill="cyan" height="10" width="10" x="366" y="310" /><circle cx="371" cy="315" fill="white" r="3" /><rect fill="cyan" height="10" width="10" x="376" y="310" /><line stroke="black" x1="310" x2="290" y1="310" y2="340" /><rect fill="magenta" height="10" width="10" x="280" y="330" /><rect fill="cyan" height="10" width="10" x="290" y="330" /><circle cx="295" cy="335" fill="white" r="3" /><rect fill="magenta" height="10" width="10" x="280" y="340" /><rect fill="cyan" height="10" width="10" x="290" y="340" /><line stroke="black" x1="310" x2="312" y1="310" y2="340" /><rect fill="magenta" height="10" width="10" x="302" y="330" /><rect fill="magenta" height="10" width="10" x="312" y="330" /><rect fill="cyan" height="10" width="10" x="302" y="340" /><circle cx="307" cy="345" fill="white" r="3" /><rect fill="cyan" height="10" width="10" x="312" y="340" /><line stroke="black" x1="376" x2="356" y1="310" y2="340" /><rect fill="magenta" height="10" width="10" x="346" y="330" /><rect fill="cyan" height="10" width="10" x="356" y="330" /><rect fill="cyan" height="10" width="10" x="346" y="340" /><rect fill="cyan" height="10" width="10" x="356" y="340" /><circle cx="361" cy="345" fill="white" r="3" /><line stroke="black" x1="376" x2="378" y1="310" y2="340" /><rect fill="cyan" height="10" width="10" x="368" y="330" /><circle cx="373" cy="335" fill="white" r="3" /><rect fill="cyan" height="10" width="10" x="378" y="330" /><rect fill="magenta" height="10" width="10" x="368" y="340" /><rect fill="cyan" height="10" width="10" x="378" y="340" /><line stroke="black" x1="290" x2="270" y1="340" y2="370" /><rect fill="cyan" height="10" width="10" x="260" y="360" /><circle cx="265" cy="365" fill="white" r="3" /><rect fill="magenta" height="10" width="10" x="270" y="360" /><rect fill="magenta" height="10" width="10" x="260" y="370" /><rect fill="cyan" height="10" width="10" x="270" y="370" /><line stroke="black" x1="290" x2="292" y1="340" y2="370" /><rect fill="magenta" height="10" width="10" x="282" y="360" /><rect fill="cyan" height="10" width="10" x="292" y="360" /><circle cx="297" cy="365" fill="white" r="3" /><rect fill="cyan" height="10" width="10" x="282" y="370" /><rect fill="cyan" height="10" width="10" x="292" y="370" /><line stroke="black" x1="290" x2="314" y1="340" y2="370" /><rect fill="magenta" height="10" width="10" x="304" y="360" /><rect fill="cyan" height="10" width="10" x="314" y="360" /><rect fill="magenta" height="10" width="10" x="304" y="370" /><rect fill="cyan" height="10" width="10" x="314" y="370" /><circle cx="319" cy="375" fill="white" r="3" /><line stroke="black" x1="378" x2="358" y1="340" y2="370" /><rect fill="cyan" height="10" width="10" x="348" y="360" /><rect fill="cyan" height="10" width="10" x="358" y="360" /><circle cx="363" cy="365" fill="white" r="3" /><rect fill="magenta" height="10" width="10" x="348" y="370" /><rect fill="cyan" height="10" width="10" x="358" y="370" /><line stroke="black" x1="378" x2="380" y1="340" y2="370" /><rect fill="magenta" height="10" width="10" x="370" y="360" /><rect fill="cyan" height="10" width="10" x="380" y="360" /><rect fill="cyan" height="10" width="10" x="370" y="370" /><circle cx="375" cy="375" fill="white" r="3" /><rect fill="cyan" height="10" width="10" x="380" y="370" /><line stroke="black" x1="358" x2="338" y1="370" y2="400" /><rect fill="cyan" height="10" width="10" x="328" y="390" /><circle cx="333" cy="395" fill="white" r="3" /><rect fill="cyan" height="10" width="10" x="338" y="390" /><rect fill="magenta" height="10" width="10" x="328" y="400" /><rect fill="cyan" height="10" width="10" x="338" y="400" /><line stroke="black" x1="358" x2="360" y1="370" y2="400" /><rect fill="cyan" height="10" width="10" x="350" y="390" /><rect fill="cyan" height="10" width="10" x="360" y="390" /><circle cx="365" cy="395" fill="white" r="3" /><rect fill="cyan" height="10" width="10" x="350" y="400" /><rect fill="cyan" height="10" width="10" x="360" y="400" /></svg>