<?xml version="1.0" encoding="utf-8" ?>
<svg baseProfile="tiny" height="600" version="1.2" width="800" xmlns="http://www.w3.org/2000/svg" xmlns:ev="http://www.w3.org/2001/xml-events" xmlns:xlink="http://www.w3.org/1999/xlink"><defs /><rect fill="magenta" height="10" width="10" x="390" y="0" /><rect fill="cyan" height="10" width="10" x="400" y="0" /><circle cx="405" cy="5" fill="white" r="3" /><rect fill="magenta" height="10" width="10" x="390" y="10" /><rect fill="magenta" height="10" width="10" x="400" y="10" /><line stroke="black" x1="400" x2="380" y1="10" y2="40" /><rect fill="cyan" height="10" width="10" x="370" y="30" /><circle cx="375" cy="35" fill="white" r="3" /><rect fill="magenta" height="10" width="10" x="380" y="30" /><rect fill="magenta" height="10" width="10" x="370" y="40" /><rect fill="magenta" height="10" width="10" x="380" y="40" /><line stroke="black" x1="400" x2="402" y1="10" y2="40" /><rect fill="magenta" height="10" width="10" x="392" y="30" /><rect fill="cyan" height="10" width="10" x="402" y="30" /><circle cx="407" cy="35" fill="white" r="3" /><rect fill="cyan" height="10" width="10" x="392" y="40" /><rect fill="magenta" height="10" width="10" x="402" y="40" /><line stroke="black" x1="400" x2="424" y1="10" y2="40" /><rect fill="magenta" height="10" width="10" x="414" y="30" /><rect fill="magenta" height="10" width="10" x="424" y="30" /><rect fill="magenta" height="10" width="10" x="414" y="40" /><rect fill="cyan" height="10" width="10" x="424" y="40" /><circle cx="429" cy="45" fill="white" r="3" /><line stroke="black" x1="380" x2="350" y1="40" y2="70" /><rect fill="magenta" height="10" width="10" x="340" y="60" /><rect fill="cyan" height="10" width="10" x="350" y="60" /><circle cx="355" cy="65" fill="white" r="3" /><rect fill="magenta" height="10" width="10" x="340" y="70" /><rect fill="magenta" height="10" width="10" x="350" y="70" /><line stroke="black" x1="380" x2="372" y1="40" y2="70" /><rect fill="cyan" height="10" width="10" x="362" y="60" /><circle cx="367" cy="65" fill="white" r="3" /><rect fill="magenta" height="10" width="10" x="372" y="60" /><rect fill="magenta" height="10" width="10" x="362" y="70" /><rect fill="cyan" height="10" width="10" x="372" y="70" /><line stroke="black" x1="380" x2="394" y1="40" y2="70" /><rect fill="magenta" height="10" width="10" x="384" y="60" /><rect fill="magenta" height="10" width="10" x="394" y="60" /><rect fill="cyan" height="10" width="10" x="384" y="70" /><circle cx="389" cy="75" fill="white" r="3" /><rect fill="magenta" height="10" width="10" x="394" y="70" /><line stroke="black" x1="402" x2="436" y1="40" y2="70" /><rect fill="magenta" height="10" width="10" x="426" y="60" /><rect fill="magenta" height="10" width="10" x="436" y="60" /><rect fill="cyan" height="10" width="10" x="426" y="70" /><rect fill="cyan" height="10" width="10" x="436" y="70" /><circle cx="441" cy="75" fill="white" r="3" /><line stroke="black" x1="402" x2="458" y1="40" y2="70" /><rect fill="cyan" height="10" width="10" x="448" y="60" /><circle cx="453" cy="65" fill="white" r="3" /><rect fill="magenta" height="10" width="10" x="458" y="60" /><rect fill="cyan" height="10" width="10" x="448" y="70" /><rect fill="magenta" height="10" width="10" x="458" y="70" /><line stroke="black" x1="394" x2="320" y1="70" y2="100" /><rect fill="cyan" height="10" width="10" x="310" y="90" /><circle cx="315" cy="95" fill="white" r="3" /><rect fill="magenta" height="10" width="10" x="320" y="90" /><rect fill="magenta" height="10" width="10" x="310" y="100" /><rect fill="magenta" height="10" width="10" x="320" y="100" /><line stroke="black" x1="394" x2="342" y1="70" y2="100" /><rect fill="magenta" height="10" width="10" x="332" y="90" /><rect fill="magenta" height="10" width="10" x="342" y="90" /><rect fill="magenta" height="10" width="10" x="332" y="100" /><rect fill="cyan" height="10" width="10" x="342" y="100" /><circle cx="347" cy="105" fill="white" r="3" /><line stroke="black" x1="394" x2="364" y1="70" y2="100" /><rect fill="magenta" height="10" width="10" x="354" y="90" /><rect fill="cyan" height="10" width="10" x="364" y="90" /><rect fill="cyan" height="10" width="10" x="354" y="100" /><circle cx="359" cy="105" fill="white" r="3" /><rect fill="magenta" height="10" width="10" x="364" y="100" /><line stroke="black" x1="350" x2="406" y1="70" y2="100" /><rect fill="magenta" height="10" width="10" x="396" y="90" /><rect fill="cyan" height="10" width="10" x="406" y="90" /><circle cx="411" cy="95" fill="white" r="3" /><rect fill="cyan" height="10" width="10" x="396" y="100" /><rect fill="magenta" height="10" width="10" x="406" y="100" /><line stroke="black" x1="458" x2="448" y1="70" y2="100" /><rect fill="magenta" height="10" width="10" x="438" y="90" /><rect fill="cyan" height="10" width="10" x="448" y="90" /><circle cx="453" cy="95" fill="white" r="3" /><rect fill="cyan" height="10" width="10" x="438" y="100" /><rect fill="magenta" height="10" width="10" x="448" y="100" /><line stroke="black" x1="458" x2="470" y1="70" y2="100" /><rect fill="cyan" height="10" width="10" x="460" y="90" /><rect fill="magenta" height="10" width="10" x="470" y="90" /><rect fill="cyan" height="10" width="10" x="460" y="100" /><circle cx="465" cy="105" fill="white" r="3" /><rect fill="magenta" height="10" width="10" x="470" y="100" /><line stroke="black" x1="458" x2="492" y1="70" y2="100" /><rect fill="cyan" height="10" width="10" x="482" y="90" /><circle cx="487" cy="95" fill="white" r="3" /><rect fill="magenta" height="10" width="10" x="492" y="90" /><rect fill="cyan" height="10" width="10" x="482" y="100" /><rect fill="cyan" height="10" width="10" x="492" y="100" /><line stroke="black" x1="492" x2="290" y1="100" y2="130" /><rect fill="cyan" height="10" width="10" x="280" y="120" /><rect fill="magenta" height="10" width="10" x="290" y="120" /><rect fill="cyan" height="10" width="10" x="280" y="130" /><circle cx="285" cy="135" fill="white" r="3" /><rect fill="cyan" height="10" width="10" x="290" y="130" /><line stroke="black" x1="492" x2="312" y1="100" y2="130" /><rect fill="magenta" height="10" width="10" x="302" y="120" /><rect fill="cyan" height="10" width="10" x="312" y="120" /><circle cx="317" cy="125" fill="white" r="3" /><rect fill="cyan" height="10" width="10" x="302" y="130" /><rect fill="cyan" height="10" width="10" x="312" y="130" /><line stroke="black" x1="470" x2="354" y1="100" y2="130" /><rect fill="cyan" height="10" width="10" x="344" y="120" /><circle cx="349" cy="125" fill="white" r="3" /><rect fill="magenta" height="10" width="10" x="354" y="120" /><rect fill="cyan" height="10" width="10" x="344" y="130" /><rect fill="magenta" height="10" width="10" x="354" y="130" /><line stroke="black" x1="470" x2="376" y1="100" y2="130" /><rect fill="cyan" height="10" width="10" x="366" y="120" /><rect fill="magenta" height="10" width="10" x="376" y="120" /><rect fill="magenta" height="10" width="10" x="366" y="130" /><rect fill="cyan" height="10" width="10" x="376" y="130" /><circle cx="381" cy="135" fill="white" r="3" /><line stroke="black" x1="470" x2="398" y1="100" y2="130" /><rect fill="cyan" height="10" width="10" x="388" y="120" /><rect fill="cyan" height="10" width="10" x="398" y="120" /><rect fill="cyan" height="10" width="10" x="388" y="130" /><circle cx="393" cy="135" fill="white" r="3" /><rect fill="magenta" height="10" width="10" x="398" y="130" /><line stroke="black" x1="342" x2="440" y1="100" y2="130" /><rect fill="cyan" height="10" width="10" x="430" y="120" /><rect fill="magenta" height="10" width="10" x="440" y="120" /><rect fill="magenta" height="10" width="10" x="430" y="130" /><rect fill="cyan" height="10" width="10" x="440" y="130" /><circle cx="445" cy="135" fill="white" r="3" /><line stroke="black" x1="342" x2="462" y1="100" y2="130" /><rect fill="magenta" height="10" width="10" x="452" y="120" /><rect fill="cyan" height="10" width="10" x="462" y="120" /><circle cx="467" cy="125" fill="white" r="3" /><rect fill="magenta" height="10" width="10" x="452" y="130" /><rect fill="magenta" height="10" width="10" x="462" y="130" /><line stroke="black" x1="342" x2="484" y1="100" y2="130" /><rect fill="magenta" height="10" width="10" x="474" y="120" /><rect fill="magenta" height="10" width="10" x="484" y="120" /><rect fill="cyan" height="10" width="10" x="474" y="130" /><circle cx="479" cy="135" fill="white" r="3" /><rect fill="magenta" height="10" width="10" x="484" y="130" /><line stroke="black" x1="448" x2="526" y1="100" y2="130" /><rect fill="cyan" height="10" width="10" x="516" y="120" /><circle cx="521" cy="125" fill="white" r="3" /><rect fill="magenta" height="10" width="10" x="526" y="120" /><rect fill="cyan" height="10" width="10" x="516" y="130" /><rect fill="magenta" height="10" width="10" x="526" y="130" /><line stroke="black" x1="290" x2="280" y1="130" y2="160" /><rect fill="cyan" height="10" width="10" x="270" y="150" /><rect fill="cyan" height="10" width="10" x="280" y="150" /><rect fill="cyan" height="10" width="10" x="270" y="160" /><circle cx="275" cy="165" fill="white" r="3" /><rect fill="cyan" height="10" width="10" x="280" y="160" /><line stroke="black" x1="526" x2="322" y1="130" y2="160" /><rect fill="cyan" height="10" width="10" x="312" y="150" /><circle cx="317" cy="155" fill="white" r="3" /><rect fill="magenta" height="10" width="10" x="322" y="150" /><rect fill="cyan" height="10" width="10" x="312" y="160" /><rect fill="cyan" height="10" width="10" x="322" y="160" /><line stroke="black" x1="312" x2="364" y1="130" y2="160" /><rect fill="magenta" height="10" width="10" x="354" y="150" /><rect fill="cyan" height="10" width="10" x="364" y="150" /><rect fill="cyan" height="10" width="10" x="354" y="160" /><rect fill="cyan" height="10" width="10" x="364" y="160" /><circle cx="369" cy="165" fill="white" r="3" /><line stroke="black" x1="312" x2="386" y1="130" y2="160" /><rect fill="cyan" height="10" width="10" x="376" y="150" /><circle cx="381" cy="155" fill="white" r="3" /><rect fill="magenta" height="10" width="10" x="386" y="150" /><rect fill="cyan" height="10" width="10" x="376" y="160" /><rect fill="cyan" height="10" width="10" x="386" y="160" /><line stroke="black" x1="398" x2="428" y1="130" y2="160" /><rect fill="cyan" height="10" width="10" x="418" y="150" /><circle cx="423" cy="155" fill="white" r="3" /><rect fill="cyan" height="10" width="10" x="428" y="150" /><rect fill="cyan" height="10" width="10" x="418" y="160" /><rect fill="magenta" height="10" width="10" x="428" y="160" /><line stroke="black" x1="462" x2="470" y1="130" y2="160" /><rect fill="magenta" height="10" width="10" x="460" y="150" /><rect fill="cyan" height="10" width="10" x="470" y="150" /><circle cx="475" cy="155" fill="white" r="3" /><rect fill="cyan" height="10" width="10" x="460" y="160" /><rect fill="magenta" height="10" width="10" x="470" y="160" /><line stroke="black" x1="440" x2="512" y1="130" y2="160" /><rect fill="cyan" height="10" width="10" x="502" y="150" /><rect fill="cyan" height="10" width="10" x="512" y="150" /><circle cx="517" cy="155" fill="white" r="3" /><rect fill="magenta" height="10" width="10" x="502" y="160" /><rect fill="magenta" height="10" width="10" x="512" y="160" /><line stroke="black" x1="440" x2="534" y1="130" y2="160" /><rect fill="cyan" height="10" width="10" x="524" y="150" /><rect fill="magenta" height="10" width="10" x="534" y="150" /><rect fill="cyan" height="10" width="10" x="524" y="160" /><circle cx="529" cy="165" fill="white" r="3" /><rect fill="magenta" height="10" width="10" x="534" y="160" /><line stroke="black" x1="386" x2="290" y1="160" y2="190" /><rect fill="magenta" height="10" width="10" x="280" y="180" /><rect fill="cyan" height="10" width="10" x="290" y="180" /><circle cx="295" cy="185" fill="white" r="3" /><rect fill="cyan" height="10" width="10" x="280" y="190" /><rect fill="cyan" height="10" width="10" x="290" y="190" /><line stroke="black" x1="428" x2="332" y1="160" y2="190" /><rect fill="cyan" height="10" width="10" x="322" y="180" /><circle cx="327" cy="185" fill="white" r="3" /><rect fill="cyan" height="10" width="10" x="332" y="180" /><rect fill="cyan" height="10" width="10" x="322" y="190" /><rect fill="cyan" height="10" width="10" x="332" y="190" /><line stroke="black" x1="364" x2="374" y1="160" y2="190" /><rect fill="magenta" height="10" width="10" x="364" y="180" /><rect fill="cyan" height="10" width="10" x="374" y="180" /><rect fill="cyan" height="10" width="10" x="364" y="190" /><circle cx="369" cy="195" fill="white" r="3" /><rect fill="cyan" height="10" width="10" x="374" y="190" /><line stroke="black" x1="364" x2="396" y1="160" y2="190" /><rect fill="cyan" height="10" width="10" x="386" y="180" /><rect fill="cyan" height="10" width="10" x="396" y="180" /><rect fill="cyan" height="10" width="10" x="386" y="190" /><rect fill="cyan" height="10" width="10" x="396" y="190" /><circle cx="401" cy="195" fill="white" r="3" /><line stroke="black" x1="512" x2="438" y1="160" y2="190" /><rect fill="cyan" height="10" width="10" x="428" y="180" /><rect fill="cyan" height="10" width="10" x="438" y="180" /><circle cx="443" cy="185" fill="white" r="3" /><rect fill="cyan" height="10" width="10" x="428" y="190" /><rect fill="magenta" height="10" width="10" x="438" y="190" /><line stroke="black" x1="512" x2="460" y1="160" y2="190" /><rect fill="cyan" height="10" width="10" x="450" y="180" /><rect fill="magenta" height="10" width="10" x="460" y="180" /><rect fill="magenta" height="10" width="10" x="450" y="190" /><rect fill="cyan" height="10" width="10" x="460" y="190" /><circle cx="465" cy="195" fill="white" r="3" /><line stroke="black" x1="512" x2="482" y1="160" y2="190" /><rect fill="cyan" height="10" width="10" x="472" y="180" /><circle cx="477" cy="185" fill="white" r="3" /><rect fill="cyan" height="10" width="10" x="482" y="180" /><rect fill="magenta" height="10" width="10" x="472" y="190" /><rect fill="magenta" height="10" width="10" x="482" y="190" /><line stroke="black" x1="470" x2="524" y1="160" y2="190" /><rect fill="cyan" height="10" width="10" x="514" y="180" /><circle cx="519" cy="185" fill="white" r="3" /><rect fill="magenta" height="10" width="10" x="524" y="180" /><rect fill="cyan" height="10" width="10" x="514" y="190" /><rect fill="magenta" height="10" width="10" x="524" y="190" /><line stroke="black" x1="438" x2="290" y1="190" y2="220" /><rect fill="cyan" height="10" width="10" x="280" y="210" /><rect fill="magenta" height="10" width="10" x="290" y="210" /><rect fill="cyan" height="10" width="10" x="280" y="220" /><rect fill="cyan" height="10" width="10" x="290" y="220" /><circle cx="295" cy="225" fill="white" r="3" /><line stroke="black" x1="482" x2="332" y1="190" y2="220" /><rect fill="cyan" height="10" width="10" x="322" y="210" /><rect fill="cyan" height="10" width="10" x="332" y="210" /><circle cx="337" cy="215" fill="white" r="3" /><rect fill="magenta" height="10" width="10" x="322" y="220" /><rect fill="magenta" height="10" width="10" x="332" y="220" /><line stroke="black" x1="482" x2="354" y1="190" y2="220" /><rect fill="cyan" height="10" width="10" x="344" y="210" /><circle cx="349" cy="215" fill="white" r="3" /><rect fill="cyan" height="10" width="10" x="354" y="210" /><rect fill="magenta" height="10" width="10" x="344" y="220" /><rect fill="cyan" height="10" width="10" x="354" y="220" /><line stroke="black" x1="482" x2="376" y1="190" y2="220" /><rect fill="magenta" height="10" width="10" x="366" y="210" /><rect fill="cyan" height="10" width="10" x="376" y="210" /><rect fill="cyan" height="10" width="10" x="366" y="220" /><circle cx="371" cy="225" fill="white" r="3" /><rect fill="magenta" height="10" width="10" x="376" y="220" /><line stroke="black" x1="524" x2="418" y1="190" y2="220" /><rect fill="cyan" height="10" width="10" x="408" y="210" /><circle cx="413" cy="215" fill="white" r="3" /><rect fill="magenta" height="10" width="10" x="418" y="210" /><rect fill="cyan" height="10" width="10" x="408" y="220" /><rect fill="cyan" height="10" width="10" x="418" y="220" /><line stroke="black" x1="290" x2="460" y1="190" y2="220" /><rect fill="magenta" height="10" width="10" x="450" y="210" /><rect fill="cyan" height="10" width="10" x="460" y="210" /><rect fill="cyan" height="10" width="10" x="450" y="220" /><rect fill="cyan" height="10" width="10" x="460" y="220" /><circle cx="465" cy="225" fill="white" r="3" /><line stroke="black" x1="374" x2="502" y1="190" y2="220" /><rect fill="magenta" height="10" width="10" x="492" y="210" /><rect fill="cyan" height="10" width="10" x="502" y="210" /><rect fill="cyan" height="10" width="10" x="492" y="220" /><rect fill="cyan" height="10" width="10" x="502" y="220" /><circle cx="507" cy="225" fill="white" r="3" /><line stroke="black" x1="374" x2="524" y1="190" y2="220" /><rect fill="cyan" height="10" width="10" x="514" y="210" /><circle cx="519" cy="215" fill="white" r="3" /><rect fill="cyan" height="10" width="10" x="524" y="210" /><rect fill="magenta" height="10" width="10" x="514" y="220" /><rect fill="cyan" height="10" width="10" x="524" y="220" /><line stroke="black" x1="502" x2="310" y1="220" y2="250" /><rect fill="cyan" height="10" width="10" x="300" y="240" /><rect fill="cyan" height="10" width="10" x="310" y="240" /><rect fill="cyan" height="10" width="10" x="300" y="250" /><rect fill="cyan" height="10" width="10" x="310" y="250" /><circle cx="315" cy="255" fill="white" r="3" /><line stroke="black" x1="418" x2="352" y1="220" y2="250" /><rect fill="magenta" height="10" width="10" x="342" y="240" /><rect fill="cyan" height="10" width="10" x="352" y="240" /><circle cx="357" cy="245" fill="white" r="3" /><rect fill="cyan" height="10" width="10" x="342" y="250" /><rect fill="cyan" height="10" width="10" x="352" y="250" /><line stroke="black" x1="524" x2="394" y1="220" y2="250" /><rect fill="cyan" height="10" width="10" x="384" y="240" /><rect fill="cyan" height="10" width="10" x="394" y="240" /><circle cx="399" cy="245" fill="white" r="3" /><rect fill="magenta" height="10" width="10" x="384" y="250" /><rect fill="cyan" height="10" width="10" x="394" y="250" /><line stroke="black" x1="376" x2="436" y1="220" y2="250" /><rect fill="magenta" height="10" width="10" x="426" y="240" /><rect fill="cyan" height="10" width="10" x="436" y="240" /><rect fill="magenta" height="10" width="10" x="426" y="250" /><rect fill="cyan" height="10" width="10" x="436" y="250" /><circle cx="441" cy="255" fill="white" r="3" /><line stroke="black" x1="376" x2="458" y1="220" y2="250" /><rect fill="cyan" height="10" width="10" x="448" y="240" /><circle cx="453" cy="245" fill="white" r="3" /><rect fill="cyan" height="10" width="10" x="458" y="240" /><rect fill="magenta" height="10" width="10" x="448" y="250" /><rect fill="magenta" height="10" width="10" x="458" y="250" /><line stroke="black" x1="290" x2="500" y1="220" y2="250" /><rect fill="cyan" height="10" width="10" x="490" y="240" /><rect fill="magenta" height="10" width="10" x="500" y="240" /><rect fill="cyan" height="10" width="10" x="490" y="250" /><circle cx="495" cy="255" fill="white" r="3" /><rect fill="cyan" height="10" width="10" x="500" y="250" /><line stroke="black" x1="352" x2="300" y1="250" y2="280" /><rect fill="magenta" height="10" width="10" x="290" y="270" /><rect fill="cyan" height="10" width="10" x="300" y="270" /><rect fill="cyan" height="10" width="10" x="290" y="280" /><rect fill="cyan" height="10" width="10" x="300" y="280" /><circle cx="305" cy="285" fill="white" r="3" /><line stroke="black" x1="374" x2="342" y1="190" y2="280" /><rect fill="cyan" height="10" width="10" x="332" y="270" /><circle cx="337" cy="275" fill="white" r="3" /><rect fill="cyan" height="10" width="10" x="342" y="270" /><rect fill="magenta" height="10" width="10" x="332" y="280" /><rect fill="cyan" height="10" width="10" x="342" y="280" /><line stroke="black" x1="500" x2="384" y1="250" y2="280" /><rect fill="cyan" height="10" width="10" x="374" y="270" /><rect fill="cyan" height="10" width="10" x="384" y="270" /><rect fill="cyan" height="10" width="10" x="374" y="280" /><circle cx="379" cy="285" fill="white" r="3" /><rect fill="cyan" height="10" width="10" x="384" y="280" /><line stroke="black" x1="436" x2="426" y1="250" y2="280" /><rect fill="magenta" height="10" width="10" x="416" y="270" /><rect fill="cyan" height="10" width="10" x="426" y="270" /><rect fill="cyan" height="10" width="10" x="416" y="280" /><circle cx="421" cy="285" fill="white" r="3" /><rect fill="magenta" height="10" width="10" x="426" y="280" /><line stroke="black" x1="436" x2="448" y1="250" y2="280" /><rect fill="cyan" height="10" width="10" x="438" y="270" /><rect fill="cyan" height="10" width="10" x="448" y="270" /><rect fill="magenta" height="10" width="10" x="438" y="280" /><rect fill="cyan" height="10" width="10" x="448" y="280" /><circle cx="453" cy="285" fill="white" r="3" /><line stroke="black" x1="436" x2="470" y1="250" y2="280" /><rect fill="magenta" height="10" width="10" x="460" y="270" /><rect fill="cyan" height="10" width="10" x="470" y="270" /><circle cx="475" cy="275" fill="white" r="3" /><rect fill="magenta" height="10" width="10" x="460" y="280" /><rect fill="cyan" height="10" width="10" x="470" y="280" /><line stroke="black" x1="394" x2="512" y1="250" y2="280" /><rect fill="cyan" height="10" width="10" x="502" y="270" /><rect fill="cyan" height="10" width="10" x="512" y="270" /><circle cx="517" cy="275" fill="white" r="3" /><rect fill="cyan" height="10" width="10" x="502" y="280" /><rect fill="cyan" height="10" width="10" x="512" y="280" /><line stroke="black" x1="342" x2="320" y1="280" y2="310" /><rect fill="cyan" height="10" width="10" x="310" y="300" /><rect fill="cyan" height="10" width="10" x="320" y="300" /><circle cx="325" cy="305" fill="white" r="3" /><rect fill="magenta" height="10" width="10" x="310" y="310" /><rect fill="cyan" height="10" width="10" x="320" y="310" /><line stroke="black" x1="300" x2="362" y1="280" y2="310" /><rect fill="cyan" height="10" width="10" x="352" y="300" /><rect fill="cyan" height="10" width="10" x="362" y="300" /><rect fill="cyan" height="10" width="10" x="352" y="310" /><rect fill="cyan" height="10" width="10" x="362" y="310" /><circle cx="367" cy="315" fill="white" r="3" /><line stroke="black" x1="448" x2="404" y1="280" y2="310" /><rect fill="cyan" height="10" width="10" x="394" y="300" /><rect fill="cyan" height="10" width="10" x="404" y="300" /><rect fill="cyan" height="10" width="10" x="394" y="310" /><circle cx="399" cy="315" fill="white" r="3" /><rect fill="magenta" height="10" width="10" x="404" y="310" /><line stroke="black" x1="470" x2="446" y1="280" y2="310" /><rect fill="magenta" height="10" width="10" x="436" y="300" /><rect fill="cyan" height="10" width="10" x="446" y="300" /><rect fill="magenta" height="10" width="10" x="436" y="310" /><rect fill="cyan" height="10" width="10" x="446" y="310" /><circle cx="451" cy="315" fill="white" r="3" /><line stroke="black" x1="470" x2="468" y1="280" y2="310" /><rect fill="cyan" height="10" width="10" x="458" y="300" /><circle cx="463" cy="305" fill="white" r="3" /><rect fill="magenta" height="10" width="10" x="468" y="300" /><rect fill="magenta" height="10" width="10" x="458" y="310" /><rect fill="cyan" height="10" width="10" x="468" y="310" /><line stroke="black" x1="470" x2="490" y1="280" y2="310" /><rect fill="magenta" height="10" width="10" x="480" y="300" /><rect fill="cyan" height="10" width="10" x="490" y="300" /><circle cx="495" cy="305" fill="white" r="3" /><rect fill="cyan" height="10" width="10" x="480" y="310" /><rect fill="cyan" height="10" width="10" x="490" y="310" /><line stroke="black" x1="320" x2="330" y1="310" y2="340" /><rect fill="cyan" height="10" width="10" x="320" y="330" /><rect fill="cyan" height="10" width="10" x="330" y="330" /><circle cx="335" cy="335" fill="white" r="3" /><rect fill="cyan" height="10" width="10" x="320" y="340" /><rect fill="cyan" height="10" width="10" x="330" y="340" /><line stroke="black" x1="404" x2="372" y1="310" y2="340" /><rect fill="cyan" height="10" width="10" x="362" y="330" /><circle cx="367" cy="335" fill="white" r="3" /><rect fill="cyan" height="10" width="10" x="372" y="330" /><rect fill="cyan" height="10" width="10" x="362" y="340" /><rect fill="magenta" height="10" width="10" x="372" y="340" /><line stroke="black" x1="490" x2="414" y1="310" y2="340" /><rect fill="magenta" height="10" width="10" x="404" y="330" /><rect fill="cyan" height="10" width="10" x="414" y="330" /><rect fill="cyan" height="10" width="10" x="404" y="340" /><rect fill="cyan" height="10" width="10" x="414" y="340" /><circle cx="419" cy="345" fill="white" r="3" /><line stroke="black" x1="468" x2="456" y1="310" y2="340" /><rect fill="magenta" height="10" width="10" x="446" y="330" /><rect fill="cyan" height="10" width="10" x="456" y="330" /><circle cx="461" cy="335" fill="white" r="3" /><rect fill="magenta" height="10" width="10" x="446" y="340" /><rect fill="cyan" height="10" width="10" x="456" y="340" /><line stroke="black" x1="468" x2="478" y1="310" y2="340" /><rect fill="magenta" height="10" width="10" x="468" y="330" /><rect fill="magenta" height="10" width="10" x="478" y="330" /><rect fill="cyan" height="10" width="10" x="468" y="340" /><circle cx="473" cy="345" fill="white" r="3" /><rect fill="cyan" height="10" width="10" x="478" y="340" /><line stroke="black" x1="372" x2="320" y1="340" y2="370" /><rect fill="cyan" height="10" width="10" x="310" y="360" /><circle cx="315" cy="365" fill="white" r="3" /><rect fill="cyan" height="10" width="10" x="320" y="360" /><rect fill="cyan" height="10" width="10" x="310" y="370" /><rect fill="cyan" height="10" width="10" x="320" y="370" /><line stroke="black" x1="478" x2="362" y1="340" y2="370" /><rect fill="magenta" height="10" width="10" x="352" y="360" /><rect fill="magenta" height="10" width="10" x="362" y="360" /><rect fill="cyan" height="10" width="10" x="352" y="370" /><rect fill="cyan" height="10" width="10" x="362" y="370" /><circle cx="367" cy="375" fill="white" r="3" /><line stroke="black" x1="478" x2="384" y1="340" y2="370" /><rect fill="magenta" height="10" width="10" x="374" y="360" /><rect fill="cyan" height="10" width="10" x="384" y="360" /><rect fill="cyan" height="10" width="10" x="374" y="370" /><circle cx="379" cy="375" fill="white" r="3" /><rect fill="cyan" height="10" width="10" x="384" y="370" /><line stroke="black" x1="478" x2="406" y1="340" y2="370" /><rect fill="cyan" height="10" width="10" x="396" y="360" /><circle cx="401" cy="365" fill="white" r="3" /><rect fill="magenta" height="10" width="10" x="406" y="360" /><rect fill="magenta" height="10" width="10" x="396" y="370" /><rect fill="cyan" height="10" width="10" x="406" y="370" /><line stroke="black" x1="414" x2="448" y1="340" y2="370" /><rect fill="cyan" height="10" width="10" x="438" y="360" /><rect fill="cyan" height="10" width="10" x="448" y="360" /><rect fill="cyan" height="10" width="10" x="438" y="370" /><rect fill="cyan" height="10" width="10" x="448" y="370" /><circle cx="453" cy="375" fill="white" r="3" /><line stroke="black" x1="448" x2="490" y1="280" y2="370" /><rect fill="cyan" height="10" width="10" x="480" y="360" /><rect fill="cyan" height="10" width="10" x="490" y="360" /><rect fill="cyan" height="10" width="10" x="480" y="370" /><circle cx="485" cy="375" fill="white" r="3" /><rect fill="magenta" height="10" width="10" x="490" y="370" /><line stroke="black" x1="384" x2="310" y1="370" y2="400" /><rect fill="cyan" height="10" width="10" x="300" y="390" /><circle cx="305" cy="395" fill="white" r="3" /><rect fill="cyan" height="10" width="10" x="310" y="390" /><rect fill="magenta" height="10" width="10" x="300" y="400" /><rect fill="cyan" height="10" width="10" x="310" y="400" /><line stroke="black" x1="362" x2="352" y1="370" y2="400" /><rect fill="magenta" height="10" width="10" x="342" y="390" /><rect fill="magenta" height="10" width="10" x="352" y="390" /><rect fill="cyan" height="10" width="10" x="342" y="400" /><circle cx="347" cy="405" fill="white" r="3" /><rect fill="cyan" height="10" width="10" x="352" y="400" /><line stroke="black" x1="362" x2="374" y1="370" y2="400" /><rect fill="cyan" height="10" width="10" x="364" y="390" /><rect fill="magenta" height="10" width="10" x="374" y="390" /><rect fill="cyan" height="10" width="10" x="364" y="400" /><rect fill="cyan" height="10" width="10" x="374" y="400" /><circle cx="379" cy="405" fill="white" r="3" /><line stroke="black" x1="362" x2="396" y1="370" y2="400" /><rect fill="magenta" height="10" width="10" x="386" y="390" /><rect fill="cyan" height="10" width="10" x="396" y="390" /><circle cx="401" cy="395" fill="white" r="3" /><rect fill="cyan" height="10" width="10" x="386" y="400" /><rect fill="magenta" height="10" width="10" x="396" y="400" /><line stroke="black" x1="438" x2="438" y1="190" y2="400" /><rect fill="cyan" height="10" width="10" x="428" y="390" /><circle cx="433" cy="395" fill="white" r="3" /><rect fill="cyan" height="10" width="10" x="438" y="390" /><rect fill="cyan" height="10" width="10" x="428" y="400" /><rect fill="magenta" height="10" width="10" x="438" y="400" /><line stroke="black" x1="438" x2="460" y1="190" y2="400" /><rect fill="cyan" height="10" width="10" x="450" y="390" /><rect fill="magenta" height="10" width="10" x="460" y="390" /><rect fill="cyan" height="10" width="10" x="450" y="400" /><rect fill="cyan" height="10" width="10" x="460" y="400" /><circle cx="465" cy="405" fill="white" r="3" /><line stroke="black" x1="490" x2="502" y1="370" y2="400" /><rect fill="cyan" height="10" width="10" x="492" y="390" /><circle cx="497" cy="395" fill="white" r="3" /><rect fill="cyan" height="10" width="10" x="502" y="390" /><rect fill="cyan" height="10" width="10" x="492" y="400" /><rect fill="magenta" height="10" width="10" x="502" y="400" /><line stroke="black" x1="502" x2="340" y1="400" y2="430" /><rect fill="cyan" height="10" width="10" x="330" y="420" /><circle cx="335" cy="425" fill="white" r="3" /><rect fill="cyan" height="10" width="10" x="340" y="420" /><rect fill="cyan" height="10" width="10" x="330" y="430" /><rect fill="cyan" height="10" width="10" x="340" y="430" /><line stroke="black" x1="310" x2="382" y1="400" y2="430" /><rect fill="cyan" height="10" width="10" x="372" y="420" /><rect fill="cyan" height="10" width="10" x="382" y="420" /><circle cx="387" cy="425" fill="white" r="3" /><rect fill="magenta" height="10" width="10" x="372" y="430" /><rect fill="cyan" height="10" width="10" x="382" y="430" /><line stroke="black" x1="396" x2="424" y1="400" y2="430" /><rect fill="cyan" height="10" width="10" x="414" y="420" /><circle cx="419" cy="425" fill="white" r="3" /><rect fill="magenta" height="10" width="10" x="424" y="420" /><rect fill="cyan" height="10" width="10" x="414" y="430" /><rect fill="magenta" height="10" width="10" x="424" y="430" /><line stroke="black" x1="460" x2="466" y1="400" y2="430" /><rect fill="cyan" height="10" width="10" x="456" y="420" /><rect fill="magenta" height="10" width="10" x="466" y="420" /><rect fill="cyan" height="10" width="10" x="456" y="430" /><circle cx="461" cy="435" fill="white" r="3" /><rect fill="cyan" height="10" width="10" x="466" y="430" /><line stroke="black" x1="424" x2="330" y1="430" y2="460" /><rect fill="cyan" height="10" width="10" x="320" y="450" /><circle cx="325" cy="455" fill="white" r="3" /><rect fill="magenta" height="10" width="10" x="330" y="450" /><rect fill="cyan" height="10" width="10" x="320" y="460" /><rect fill="cyan" height="10" width="10" x="330" y="460" /><line stroke="black" x1="438" x2="372" y1="190" y2="460" /><rect fill="cyan" height="10" width="10" x="362" y="450" /><rect fill="magenta" height="10" width="10" x="372" y="450" /><rect fill="cyan" height="10" width="10" x="362" y="460" /><rect fill="cyan" height="10" width="10" x="372" y="460" /><circle cx="377" cy="465" fill="white" r="3" /><line stroke="black" x1="466" x2="414" y1="430" y2="460" /><rect fill="cyan" height="10" width="10" x="404" y="450" /><rect fill="magenta" height="10" width="10" x="414" y="450" /><rect fill="cyan" height="10" width="10" x="404" y="460" /><rect fill="cyan" height="10" width="10" x="414" y="460" /><circle cx="419" cy="465" fill="white" r="3" /><line stroke="black" x1="466" x2="436" y1="430" y2="460" /><rect fill="cyan" height="10" width="10" x="426" y="450" /><rect fill="cyan" height="10" width="10" x="436" y="450" /><rect fill="cyan" height="10" width="10" x="426" y="460" /><circle cx="431" cy="465" fill="white" r="3" /><rect fill="cyan" height="10" width="10" x="436" y="460" /><line stroke="black" x1="382" x2="478" y1="430" y2="460" /><rect fill="cyan" height="10" width="10" x="468" y="450" /><rect fill="cyan" height="10" width="10" x="478" y="450" /><circle cx="483" cy="455" fill="white" r="3" /><rect fill="cyan" height="10" width="10" x="468" y="460" /><rect fill="cyan" height="10" width="10" x="478" y="460" /><line stroke="black" x1="414" x2="380" y1="460" y2="490" /><rect fill="cyan" height="10" width="10" x="370" y="480" /><rect fill="magenta" height="10" width="10" x="380" y="480" /><rect fill="cyan" height="10" width="10" x="370" y="490" /><circle cx="375" cy="495" fill="white" r="3" /><rect fill="cyan" height="10" width="10" x="380" y="490" /><line stroke="black" x1="330" x2="422" y1="460" y2="490" /><rect fill="magenta" height="10" width="10" x="412" y="480" /><rect fill="cyan" height="10" width="10" x="422" y="480" /><circle cx="427" cy="485" fill="white" r="3" /><rect fill="cyan" height="10" width="10" x="412" y="490" /><rect fill="cyan" height="10" width="10" x="422" y="490" /><line stroke="black" x1="422" x2="380" y1="490" y2="520" /><rect fill="magenta" height="10" width="10" x="370" y="510" /><rect fill="cyan" height="10" width="10" x="380" y="510" /><rect fill="cyan" height="10" width="10" x="370" y="520" /><rect fill="cyan" height="10" width="10" x="380" y="520" /><circle cx="385" cy="525" fill="white" r="3" /><line stroke="black" x1="380" x2="422" y1="490" y2="520" /><rect fill="cyan" height="10" width="10" x="412" y="510" /><rect fill="cyan" height="10" width="10" x="422" y="510" /><rect fill="cyan" height="10" width="10" x="412" y="520" /><circle cx="417" cy="525" fill="white" r="3" /><rect fill="cyan" height="10" width="10" x="422" y="520" /><line stroke="black" x1="380" x2="400" y1="520" y2="550" /><rect fill="cyan" height="10" width="10" x="390" y="540" /><rect fill="cyan" height="10" width="10" x="400" y="540" /><rect fill="cyan" height="10" width="10" x="390" y="550" /><rect fill="cyan" height="10" width="10" x="400" y="550" /><circle cx="405" cy="555" fill="white" r="3" /></svg>