<?xml version="1.0" encoding="utf-8" ?>
<svg baseProfile="tiny" height="600" version="1.2" width="800" xmlns="http://www.w3.org/2000/svg" xmlns:ev="http://www.w3.org/2001/xml-events" xmlns:xlink="http://www.w3.org/1999/xlink"><defs /><rect fill="cyan" height="10" width="10" x="390" y="0" /><rect fill="magenta" height="10" width="10" x="400" y="0" /><rect fill="cyan" height="10" width="10" x="390" y="10" /><circle cx="395" cy="15" fill="white" r="3" /><rect fill="magenta" height="10" width="10" x="400" y="10" /><line stroke="black" x1="400" x2="380" y1="10" y2="40" /><rect fill="cyan" height="10" width="10" x="370" y="30" /><rect fill="magenta" height="10" width="10" x="380" y="30" /><rect fill="magenta" height="10" width="10" x="370" y="40" /><rect fill="cyan" height="10" width="10" x="380" y="40" /><circle cx="385" cy="45" fill="white" r="3" /><line stroke="black" x1="400" x2="402" y1="10" y2="40" /><rect fill="cyan" height="10" width="10" x="392" y="30" /><rect fill="cyan" height="10" width="10" x="402" y="30" /><rect fill="cyan" height="10" width="10" x="392" y="40" /><circle cx="397" cy="45" fill="white" r="3" /><rect fill="magenta" height="10" width="10" x="402" y="40" /><line stroke="black" x1="400" x2="424" y1="10" y2="40" /><rect fill="cyan" height="10" width="10" x="414" y="30" /><circle cx="419" cy="35" fill="white" r="3" /><rect fill="magenta" height="10" width="10" x="424" y="30" /><rect fill="cyan" height="10" width="10" x="414" y="40" /><rect fill="magenta" height="10" width="10" x="424" y="40" /><line stroke="black" x1="380" x2="360" y1="40" y2="70" /><rect fill="cyan" height="10" width="10" x="350" y="60" /><rect fill="cyan" height="10" width="10" x="360" y="60" /><circle cx="365" cy="65" fill="white" r="3" /><rect fill="magenta" height="10" width="10" x="350" y="70" /><rect fill="magenta" height="10" width="10" x="360" y="70" /><line stroke="black" x1="380" x2="382" y1="40" y2="70" /><rect fill="cyan" height="10" width="10" x="372" y="60" /><rect fill="magenta" height="10" width="10" x="382" y="60" /><rect fill="cyan" height="10" width="10" x="372" y="70" /><circle cx="377" cy="75" fill="white" r="3" /><rect fill="magenta" height="10" width="10" x="382" y="70" /><line stroke="black" x1="402" x2="424" y1="40" y2="70" /><rect fill="cyan" height="10" width="10" x="414" y="60" /><circle cx="419" cy="65" fill="white" r="3" /><rect fill="cyan" height="10" width="10" x="424" y="60" /><rect fill="cyan" height="10" width="10" x="414" y="70" /><rect fill="magenta" height="10" width="10" x="424" y="70" /><line stroke="black" x1="402" x2="446" y1="40" y2="70" /><rect fill="cyan" height="10" width="10" x="436" y="60" /><rect fill="cyan" height="10" width="10" x="446" y="60" /><rect fill="magenta" height="10" width="10" x="436" y="70" /><rect fill="cyan" height="10" width="10" x="446" y="70" /><circle cx="451" cy="75" fill="white" r="3" /><line stroke="black" x1="424" x2="310" y1="70" y2="100" /><rect fill="cyan" height="10" width="10" x="300" y="90" /><circle cx="305" cy="95" fill="white" r="3" /><rect fill="cyan" height="10" width="10" x="310" y="90" /><rect fill="cyan" height="10" width="10" x="300" y="100" /><rect fill="cyan" height="10" width="10" x="310" y="100" /><line stroke="black" x1="360" x2="352" y1="70" y2="100" /><rect fill="cyan" height="10" width="10" x="342" y="90" /><rect fill="cyan" height="10" width="10" x="352" y="90" /><circle cx="357" cy="95" fill="white" r="3" /><rect fill="cyan" height="10" width="10" x="342" y="100" /><rect fill="magenta" height="10" width="10" x="352" y="100" /><line stroke="black" x1="360" x2="374" y1="70" y2="100" /><rect fill="cyan" height="10" width="10" x="364" y="90" /><rect fill="magenta" height="10" width="10" x="374" y="90" /><rect fill="magenta" height="10" width="10" x="364" y="100" /><rect fill="cyan" height="10" width="10" x="374" y="100" /><circle cx="379" cy="105" fill="white" r="3" /><line stroke="black" x1="360" x2="396" y1="70" y2="100" /><rect fill="cyan" height="10" width="10" x="386" y="90" /><circle cx="391" cy="95" fill="white" r="3" /><rect fill="cyan" height="10" width="10" x="396" y="90" /><rect fill="magenta" height="10" width="10" x="386" y="100" /><rect fill="magenta" height="10" width="10" x="396" y="100" /><line stroke="black" x1="382" x2="438" y1="70" y2="100" /><rect fill="cyan" height="10" width="10" x="428" y="90" /><rect fill="cyan" height="10" width="10" x="438" y="90" /><rect fill="cyan" height="10" width="10" x="428" y="100" /><circle cx="433" cy="105" fill="white" r="3" /><rect fill="magenta" height="10" width="10" x="438" y="100" /><line stroke="black" x1="446" x2="480" y1="70" y2="100" /><rect fill="cyan" height="10" width="10" x="470" y="90" /><rect fill="cyan" height="10" width="10" x="480" y="90" /><circle cx="485" cy="95" fill="white" r="3" /><rect fill="magenta" height="10" width="10" x="470" y="100" /><rect fill="cyan" height="10" width="10" x="480" y="100" /><line stroke="black" x1="446" x2="502" y1="70" y2="100" /><rect fill="cyan" height="10" width="10" x="492" y="90" /><rect fill="cyan" height="10" width="10" x="502" y="90" /><rect fill="cyan" height="10" width="10" x="492" y="100" /><circle cx="497" cy="105" fill="white" r="3" /><rect fill="magenta" height="10" width="10" x="502" y="100" /><line stroke="black" x1="352" x2="310" y1="100" y2="130" /><rect fill="cyan" height="10" width="10" x="300" y="120" /><circle cx="305" cy="125" fill="white" r="3" /><rect fill="cyan" height="10" width="10" x="310" y="120" /><rect fill="cyan" height="10" width="10" x="300" y="130" /><rect fill="magenta" height="10" width="10" x="310" y="130" /><line stroke="black" x1="396" x2="352" y1="100" y2="130" /><rect fill="cyan" height="10" width="10" x="342" y="120" /><rect fill="cyan" height="10" width="10" x="352" y="120" /><circle cx="357" cy="125" fill="white" r="3" /><rect fill="magenta" height="10" width="10" x="342" y="130" /><rect fill="magenta" height="10" width="10" x="352" y="130" /><line stroke="black" x1="396" x2="374" y1="100" y2="130" /><rect fill="cyan" height="10" width="10" x="364" y="120" /><circle cx="369" cy="125" fill="white" r="3" /><rect fill="cyan" height="10" width="10" x="374" y="120" /><rect fill="magenta" height="10" width="10" x="364" y="130" /><rect fill="cyan" height="10" width="10" x="374" y="130" /><line stroke="black" x1="396" x2="396" y1="100" y2="130" /><rect fill="magenta" height="10" width="10" x="386" y="120" /><rect fill="cyan" height="10" width="10" x="396" y="120" /><rect fill="cyan" height="10" width="10" x="386" y="130" /><circle cx="391" cy="135" fill="white" r="3" /><rect fill="magenta" height="10" width="10" x="396" y="130" /><line stroke="black" x1="480" x2="438" y1="100" y2="130" /><rect fill="cyan" height="10" width="10" x="428" y="120" /><circle cx="433" cy="125" fill="white" r="3" /><rect fill="cyan" height="10" width="10" x="438" y="120" /><rect fill="magenta" height="10" width="10" x="428" y="130" /><rect fill="cyan" height="10" width="10" x="438" y="130" /><line stroke="black" x1="480" x2="460" y1="100" y2="130" /><rect fill="cyan" height="10" width="10" x="450" y="120" /><rect fill="cyan" height="10" width="10" x="460" y="120" /><circle cx="465" cy="125" fill="white" r="3" /><rect fill="cyan" height="10" width="10" x="450" y="130" /><rect fill="cyan" height="10" width="10" x="460" y="130" /><line stroke="black" x1="502" x2="502" y1="100" y2="130" /><rect fill="cyan" height="10" width="10" x="492" y="120" /><rect fill="cyan" height="10" width="10" x="502" y="120" /><rect fill="magenta" height="10" width="10" x="492" y="130" /><rect fill="cyan" height="10" width="10" x="502" y="130" /><circle cx="507" cy="135" fill="white" r="3" /><line stroke="black" x1="438" x2="330" y1="130" y2="160" /><rect fill="magenta" height="10" width="10" x="320" y="150" /><rect fill="cyan" height="10" width="10" x="330" y="150" /><rect fill="cyan" height="10" width="10" x="320" y="160" /><circle cx="325" cy="165" fill="white" r="3" /><rect fill="cyan" height="10" width="10" x="330" y="160" /><line stroke="black" x1="396" x2="372" y1="130" y2="160" /><rect fill="magenta" height="10" width="10" x="362" y="150" /><rect fill="cyan" height="10" width="10" x="372" y="150" /><rect fill="magenta" height="10" width="10" x="362" y="160" /><rect fill="cyan" height="10" width="10" x="372" y="160" /><circle cx="377" cy="165" fill="white" r="3" /><line stroke="black" x1="396" x2="394" y1="130" y2="160" /><rect fill="cyan" height="10" width="10" x="384" y="150" /><circle cx="389" cy="155" fill="white" r="3" /><rect fill="cyan" height="10" width="10" x="394" y="150" /><rect fill="magenta" height="10" width="10" x="384" y="160" /><rect fill="magenta" height="10" width="10" x="394" y="160" /><line stroke="black" x1="502" x2="436" y1="130" y2="160" /><rect fill="cyan" height="10" width="10" x="426" y="150" /><rect fill="cyan" height="10" width="10" x="436" y="150" /><circle cx="441" cy="155" fill="white" r="3" /><rect fill="magenta" height="10" width="10" x="426" y="160" /><rect fill="cyan" height="10" width="10" x="436" y="160" /><line stroke="black" x1="310" x2="478" y1="130" y2="160" /><rect fill="cyan" height="10" width="10" x="468" y="150" /><circle cx="473" cy="155" fill="white" r="3" /><rect fill="cyan" height="10" width="10" x="478" y="150" /><rect fill="cyan" height="10" width="10" x="468" y="160" /><rect fill="cyan" height="10" width="10" x="478" y="160" /><line stroke="black" x1="436" x2="330" y1="160" y2="190" /><rect fill="cyan" height="10" width="10" x="320" y="180" /><rect fill="cyan" height="10" width="10" x="330" y="180" /><circle cx="335" cy="185" fill="white" r="3" /><rect fill="cyan" height="10" width="10" x="320" y="190" /><rect fill="cyan" height="10" width="10" x="330" y="190" /><line stroke="black" x1="372" x2="372" y1="160" y2="190" /><rect fill="magenta" height="10" width="10" x="362" y="180" /><rect fill="cyan" height="10" width="10" x="372" y="180" /><rect fill="cyan" height="10" width="10" x="362" y="190" /><circle cx="367" cy="195" fill="white" r="3" /><rect fill="magenta" height="10" width="10" x="372" y="190" /><line stroke="black" x1="372" x2="394" y1="160" y2="190" /><rect fill="cyan" height="10" width="10" x="384" y="180" /><rect fill="cyan" height="10" width="10" x="394" y="180" /><rect fill="magenta" height="10" width="10" x="384" y="190" /><rect fill="cyan" height="10" width="10" x="394" y="190" /><circle cx="399" cy="195" fill="white" r="3" /><line stroke="black" x1="372" x2="416" y1="160" y2="190" /><rect fill="magenta" height="10" width="10" x="406" y="180" /><rect fill="cyan" height="10" width="10" x="416" y="180" /><circle cx="421" cy="185" fill="white" r="3" /><rect fill="magenta" height="10" width="10" x="406" y="190" /><rect fill="cyan" height="10" width="10" x="416" y="190" /><line stroke="black" x1="330" x2="458" y1="160" y2="190" /><rect fill="cyan" height="10" width="10" x="448" y="180" /><circle cx="453" cy="185" fill="white" r="3" /><rect fill="cyan" height="10" width="10" x="458" y="180" /><rect fill="magenta" height="10" width="10" x="448" y="190" /><rect fill="cyan" height="10" width="10" x="458" y="190" /><line stroke="black" x1="330" x2="480" y1="160" y2="190" /><rect fill="magenta" height="10" width="10" x="470" y="180" /><rect fill="cyan" height="10" width="10" x="480" y="180" /><rect fill="cyan" height="10" width="10" x="470" y="190" /><rect fill="cyan" height="10" width="10" x="480" y="190" /><circle cx="485" cy="195" fill="white" r="3" /><line stroke="black" x1="480" x2="310" y1="190" y2="220" /><rect fill="magenta" height="10" width="10" x="300" y="210" /><rect fill="cyan" height="10" width="10" x="310" y="210" /><rect fill="cyan" height="10" width="10" x="300" y="220" /><circle cx="305" cy="225" fill="white" r="3" /><rect fill="cyan" height="10" width="10" x="310" y="220" /><line stroke="black" x1="480" x2="332" y1="190" y2="220" /><rect fill="cyan" height="10" width="10" x="322" y="210" /><rect fill="cyan" height="10" width="10" x="332" y="210" /><rect fill="cyan" height="10" width="10" x="322" y="220" /><rect fill="cyan" height="10" width="10" x="332" y="220" /><circle cx="337" cy="225" fill="white" r="3" /><line stroke="black" x1="458" x2="374" y1="190" y2="220" /><rect fill="magenta" height="10" width="10" x="364" y="210" /><rect fill="cyan" height="10" width="10" x="374" y="210" /><rect fill="cyan" height="10" width="10" x="364" y="220" /><circle cx="369" cy="225" fill="white" r="3" /><rect fill="cyan" height="10" width="10" x="374" y="220" /><line stroke="black" x1="394" x2="416" y1="190" y2="220" /><rect fill="cyan" height="10" width="10" x="406" y="210" /><rect fill="cyan" height="10" width="10" x="416" y="210" /><circle cx="421" cy="215" fill="white" r="3" /><rect fill="magenta" height="10" width="10" x="406" y="220" /><rect fill="cyan" height="10" width="10" x="416" y="220" /><line stroke="black" x1="416" x2="458" y1="190" y2="220" /><rect fill="magenta" height="10" width="10" x="448" y="210" /><rect fill="cyan" height="10" width="10" x="458" y="210" /><rect fill="magenta" height="10" width="10" x="448" y="220" /><rect fill="cyan" height="10" width="10" x="458" y="220" /><circle cx="463" cy="225" fill="white" r="3" /><line stroke="black" x1="416" x2="480" y1="190" y2="220" /><rect fill="cyan" height="10" width="10" x="470" y="210" /><circle cx="475" cy="215" fill="white" r="3" /><rect fill="magenta" height="10" width="10" x="480" y="210" /><rect fill="magenta" height="10" width="10" x="470" y="220" /><rect fill="cyan" height="10" width="10" x="480" y="220" /><line stroke="black" x1="416" x2="502" y1="190" y2="220" /><rect fill="magenta" height="10" width="10" x="492" y="210" /><rect fill="cyan" height="10" width="10" x="502" y="210" /><circle cx="507" cy="215" fill="white" r="3" /><rect fill="cyan" height="10" width="10" x="492" y="220" /><rect fill="cyan" height="10" width="10" x="502" y="220" /><line stroke="black" x1="502" x2="330" y1="220" y2="250" /><rect fill="cyan" height="10" width="10" x="320" y="240" /><circle cx="325" cy="245" fill="white" r="3" /><rect fill="magenta" height="10" width="10" x="330" y="240" /><rect fill="cyan" height="10" width="10" x="320" y="250" /><rect fill="cyan" height="10" width="10" x="330" y="250" /><line stroke="black" x1="416" x2="372" y1="220" y2="250" /><rect fill="cyan" height="10" width="10" x="362" y="240" /><rect fill="cyan" height="10" width="10" x="372" y="240" /><circle cx="377" cy="245" fill="white" r="3" /><rect fill="cyan" height="10" width="10" x="362" y="250" /><rect fill="cyan" height="10" width="10" x="372" y="250" /><line stroke="black" x1="480" x2="414" y1="220" y2="250" /><rect fill="magenta" height="10" width="10" x="404" y="240" /><rect fill="cyan" height="10" width="10" x="414" y="240" /><circle cx="419" cy="245" fill="white" r="3" /><rect fill="magenta" height="10" width="10" x="404" y="250" /><rect fill="cyan" height="10" width="10" x="414" y="250" /><line stroke="black" x1="480" x2="436" y1="220" y2="250" /><rect fill="magenta" height="10" width="10" x="426" y="240" /><rect fill="magenta" height="10" width="10" x="436" y="240" /><rect fill="cyan" height="10" width="10" x="426" y="250" /><circle cx="431" cy="255" fill="white" r="3" /><rect fill="cyan" height="10" width="10" x="436" y="250" /><line stroke="black" x1="374" x2="478" y1="220" y2="250" /><rect fill="magenta" height="10" width="10" x="468" y="240" /><rect fill="cyan" height="10" width="10" x="478" y="240" /><rect fill="cyan" height="10" width="10" x="468" y="250" /><rect fill="cyan" height="10" width="10" x="478" y="250" /><circle cx="483" cy="255" fill="white" r="3" /><line stroke="black" x1="330" x2="340" y1="250" y2="280" /><rect fill="cyan" height="10" width="10" x="330" y="270" /><rect fill="magenta" height="10" width="10" x="340" y="270" /><rect fill="cyan" height="10" width="10" x="330" y="280" /><circle cx="335" cy="285" fill="white" r="3" /><rect fill="cyan" height="10" width="10" x="340" y="280" /><line stroke="black" x1="478" x2="382" y1="250" y2="280" /><rect fill="cyan" height="10" width="10" x="372" y="270" /><rect fill="cyan" height="10" width="10" x="382" y="270" /><rect fill="cyan" height="10" width="10" x="372" y="280" /><rect fill="cyan" height="10" width="10" x="382" y="280" /><circle cx="387" cy="285" fill="white" r="3" /><line stroke="black" x1="436" x2="424" y1="250" y2="280" /><rect fill="magenta" height="10" width="10" x="414" y="270" /><rect fill="magenta" height="10" width="10" x="424" y="270" /><rect fill="cyan" height="10" width="10" x="414" y="280" /><rect fill="cyan" height="10" width="10" x="424" y="280" /><circle cx="429" cy="285" fill="white" r="3" /><line stroke="black" x1="436" x2="446" y1="250" y2="280" /><rect fill="magenta" height="10" width="10" x="436" y="270" /><rect fill="cyan" height="10" width="10" x="446" y="270" /><rect fill="cyan" height="10" width="10" x="436" y="280" /><circle cx="441" cy="285" fill="white" r="3" /><rect fill="cyan" height="10" width="10" x="446" y="280" /><line stroke="black" x1="436" x2="468" y1="250" y2="280" /><rect fill="cyan" height="10" width="10" x="458" y="270" /><circle cx="463" cy="275" fill="white" r="3" /><rect fill="magenta" height="10" width="10" x="468" y="270" /><rect fill="magenta" height="10" width="10" x="458" y="280" /><rect fill="cyan" height="10" width="10" x="468" y="280" /><line stroke="black" x1="446" x2="320" y1="280" y2="310" /><rect fill="magenta" height="10" width="10" x="310" y="300" /><rect fill="cyan" height="10" width="10" x="320" y="300" /><rect fill="cyan" height="10" width="10" x="310" y="310" /><rect fill="cyan" height="10" width="10" x="320" y="310" /><circle cx="325" cy="315" fill="white" r="3" /><line stroke="black" x1="424" x2="362" y1="280" y2="310" /><rect fill="magenta" height="10" width="10" x="352" y="300" /><rect fill="magenta" height="10" width="10" x="362" y="300" /><rect fill="cyan" height="10" width="10" x="352" y="310" /><circle cx="357" cy="315" fill="white" r="3" /><rect fill="cyan" height="10" width="10" x="362" y="310" /><line stroke="black" x1="424" x2="384" y1="280" y2="310" /><rect fill="cyan" height="10" width="10" x="374" y="300" /><rect fill="magenta" height="10" width="10" x="384" y="300" /><rect fill="cyan" height="10" width="10" x="374" y="310" /><rect fill="cyan" height="10" width="10" x="384" y="310" /><circle cx="389" cy="315" fill="white" r="3" /><line stroke="black" x1="424" x2="406" y1="280" y2="310" /><rect fill="magenta" height="10" width="10" x="396" y="300" /><rect fill="cyan" height="10" width="10" x="406" y="300" /><circle cx="411" cy="305" fill="white" r="3" /><rect fill="cyan" height="10" width="10" x="396" y="310" /><rect fill="magenta" height="10" width="10" x="406" y="310" /><line stroke="black" x1="502" x2="448" y1="220" y2="310" /><rect fill="cyan" height="10" width="10" x="438" y="300" /><circle cx="443" cy="305" fill="white" r="3" /><rect fill="magenta" height="10" width="10" x="448" y="300" /><rect fill="cyan" height="10" width="10" x="438" y="310" /><rect fill="cyan" height="10" width="10" x="448" y="310" /><line stroke="black" x1="340" x2="490" y1="280" y2="310" /><rect fill="cyan" height="10" width="10" x="480" y="300" /><rect fill="cyan" height="10" width="10" x="490" y="300" /><rect fill="cyan" height="10" width="10" x="480" y="310" /><circle cx="485" cy="315" fill="white" r="3" /><rect fill="cyan" height="10" width="10" x="490" y="310" /><line stroke="black" x1="406" x2="330" y1="310" y2="340" /><rect fill="magenta" height="10" width="10" x="320" y="330" /><rect fill="magenta" height="10" width="10" x="330" y="330" /><rect fill="cyan" height="10" width="10" x="320" y="340" /><rect fill="cyan" height="10" width="10" x="330" y="340" /><circle cx="335" cy="345" fill="white" r="3" /><line stroke="black" x1="406" x2="352" y1="310" y2="340" /><rect fill="cyan" height="10" width="10" x="342" y="330" /><circle cx="347" cy="335" fill="white" r="3" /><rect fill="magenta" height="10" width="10" x="352" y="330" /><rect fill="cyan" height="10" width="10" x="342" y="340" /><rect fill="magenta" height="10" width="10" x="352" y="340" /><line stroke="black" x1="448" x2="394" y1="310" y2="340" /><rect fill="cyan" height="10" width="10" x="384" y="330" /><rect fill="magenta" height="10" width="10" x="394" y="330" /><rect fill="cyan" height="10" width="10" x="384" y="340" /><circle cx="389" cy="345" fill="white" r="3" /><rect fill="cyan" height="10" width="10" x="394" y="340" /><line stroke="black" x1="384" x2="436" y1="310" y2="340" /><rect fill="cyan" height="10" width="10" x="426" y="330" /><rect fill="cyan" height="10" width="10" x="436" y="330" /><circle cx="441" cy="335" fill="white" r="3" /><rect fill="cyan" height="10" width="10" x="426" y="340" /><rect fill="magenta" height="10" width="10" x="436" y="340" /><line stroke="black" x1="320" x2="478" y1="310" y2="340" /><rect fill="cyan" height="10" width="10" x="468" y="330" /><rect fill="cyan" height="10" width="10" x="478" y="330" /><rect fill="cyan" height="10" width="10" x="468" y="340" /><rect fill="cyan" height="10" width="10" x="478" y="340" /><circle cx="483" cy="345" fill="white" r="3" /><line stroke="black" x1="394" x2="340" y1="340" y2="370" /><rect fill="cyan" height="10" width="10" x="330" y="360" /><rect fill="cyan" height="10" width="10" x="340" y="360" /><rect fill="cyan" height="10" width="10" x="330" y="370" /><circle cx="335" cy="375" fill="white" r="3" /><rect fill="cyan" height="10" width="10" x="340" y="370" /><line stroke="black" x1="436" x2="382" y1="340" y2="370" /><rect fill="cyan" height="10" width="10" x="372" y="360" /><circle cx="377" cy="365" fill="white" r="3" /><rect fill="cyan" height="10" width="10" x="382" y="360" /><rect fill="cyan" height="10" width="10" x="372" y="370" /><rect fill="magenta" height="10" width="10" x="382" y="370" /><line stroke="black" x1="352" x2="424" y1="340" y2="370" /><rect fill="cyan" height="10" width="10" x="414" y="360" /><circle cx="419" cy="365" fill="white" r="3" /><rect fill="magenta" height="10" width="10" x="424" y="360" /><rect fill="cyan" height="10" width="10" x="414" y="370" /><rect fill="cyan" height="10" width="10" x="424" y="370" /><line stroke="black" x1="352" x2="446" y1="340" y2="370" /><rect fill="cyan" height="10" width="10" x="436" y="360" /><rect fill="magenta" height="10" width="10" x="446" y="360" /><rect fill="cyan" height="10" width="10" x="436" y="370" /><circle cx="441" cy="375" fill="white" r="3" /><rect fill="magenta" height="10" width="10" x="446" y="370" /><line stroke="black" x1="352" x2="468" y1="340" y2="370" /><rect fill="magenta" height="10" width="10" x="458" y="360" /><rect fill="cyan" height="10" width="10" x="468" y="360" /><circle cx="473" cy="365" fill="white" r="3" /><rect fill="cyan" height="10" width="10" x="458" y="370" /><rect fill="magenta" height="10" width="10" x="468" y="370" /><line stroke="black" x1="384" x2="340" y1="310" y2="400" /><rect fill="cyan" height="10" width="10" x="330" y="390" /><rect fill="cyan" height="10" width="10" x="340" y="390" /><circle cx="345" cy="395" fill="white" r="3" /><rect fill="cyan" height="10" width="10" x="330" y="400" /><rect fill="magenta" height="10" width="10" x="340" y="400" /><line stroke="black" x1="382" x2="382" y1="370" y2="400" /><rect fill="cyan" height="10" width="10" x="372" y="390" /><circle cx="377" cy="395" fill="white" r="3" /><rect fill="cyan" height="10" width="10" x="382" y="390" /><rect fill="cyan" height="10" width="10" x="372" y="400" /><rect fill="cyan" height="10" width="10" x="382" y="400" /><line stroke="black" x1="424" x2="424" y1="370" y2="400" /><rect fill="cyan" height="10" width="10" x="414" y="390" /><rect fill="magenta" height="10" width="10" x="424" y="390" /><rect fill="cyan" height="10" width="10" x="414" y="400" /><circle cx="419" cy="405" fill="white" r="3" /><rect fill="cyan" height="10" width="10" x="424" y="400" /><line stroke="black" x1="446" x2="466" y1="370" y2="400" /><rect fill="cyan" height="10" width="10" x="456" y="390" /><rect fill="cyan" height="10" width="10" x="466" y="390" /><rect fill="cyan" height="10" width="10" x="456" y="400" /><circle cx="461" cy="405" fill="white" r="3" /><rect fill="magenta" height="10" width="10" x="466" y="400" /><line stroke="black" x1="340" x2="360" y1="400" y2="430" /><rect fill="cyan" height="10" width="10" x="350" y="420" /><circle cx="355" cy="425" fill="white" r="3" /><rect fill="cyan" height="10" width="10" x="360" y="420" /><rect fill="cyan" height="10" width="10" x="350" y="430" /><rect fill="magenta" height="10" width="10" x="360" y="430" /><line stroke="black" x1="466" x2="402" y1="400" y2="430" /><rect fill="cyan" height="10" width="10" x="392" y="420" /><rect fill="cyan" height="10" width="10" x="402" y="420" /><rect fill="magenta" height="10" width="10" x="392" y="430" /><rect fill="cyan" height="10" width="10" x="402" y="430" /><circle cx="407" cy="435" fill="white" r="3" /><line stroke="black" x1="424" x2="444" y1="400" y2="430" /><rect fill="cyan" height="10" width="10" x="434" y="420" /><rect fill="cyan" height="10" width="10" x="444" y="420" /><rect fill="cyan" height="10" width="10" x="434" y="430" /><circle cx="439" cy="435" fill="white" r="3" /><rect fill="cyan" height="10" width="10" x="444" y="430" /><line stroke="black" x1="402" x2="380" y1="430" y2="460" /><rect fill="cyan" height="10" width="10" x="370" y="450" /><rect fill="cyan" height="10" width="10" x="380" y="450" /><circle cx="385" cy="455" fill="white" r="3" /><rect fill="magenta" height="10" width="10" x="370" y="460" /><rect fill="cyan" height="10" width="10" x="380" y="460" /><line stroke="black" x1="360" x2="422" y1="430" y2="460" /><rect fill="cyan" height="10" width="10" x="412" y="450" /><circle cx="417" cy="455" fill="white" r="3" /><rect fill="cyan" height="10" width="10" x="422" y="450" /><rect fill="cyan" height="10" width="10" x="412" y="460" /><rect fill="cyan" height="10" width="10" x="422" y="460" /><line stroke="black" x1="380" x2="400" y1="460" y2="490" /><rect fill="cyan" height="10" width="10" x="390" y="480" /><rect fill="cyan" height="10" width="10" x="400" y="480" /><circle cx="405" cy="485" fill="white" r="3" /><rect fill="cyan" height="10" width="10" x="390" y="490" /><rect fill="cyan" height="10" width="10" x="400" y="490" /></svg>