<?xml version="1.0" encoding="utf-8" ?>
<svg baseProfile="tiny" height="600" version="1.2" width="800" xmlns="http://www.w3.org/2000/svg" xmlns:ev="http://www.w3.org/2001/xml-events" xmlns:xlink="http://www.w3.org/1999/xlink"><defs /><rect fill="magenta" height="10" width="10" x="390" y="0" /><circle cx="395" cy="5" fill="white" r="3" /><rect fill="cyan" height="10" width="10" x="400" y="0" /><rect fill="cyan" height="10" width="10" x="390" y="10" /><rect fill="cyan" height="10" width="10" x="400" y="10" /><line stroke="black" x1="400" x2="380" y1="10" y2="40" /><rect fill="magenta" height="10" width="10" x="370" y="30" /><circle cx="375" cy="35" fill="white" r="3" /><rect fill="cyan" height="10" width="10" x="380" y="30" /><rect fill="cyan" height="10" width="10" x="370" y="40" /><rect fill="magenta" height="10" width="10" x="380" y="40" /><line stroke="black" x1="380" x2="360" y1="40" y2="70" /><rect fill="cyan" height="10" width="10" x="350" y="60" /><rect fill="magenta" height="10" width="10" x="360" y="60" /><circle cx="365" cy="65" fill="white" r="3" /><rect fill="cyan" height="10" width="10" x="350" y="70" /><rect fill="magenta" height="10" width="10" x="360" y="70" /><line stroke="black" x1="360" x2="340" y1="70" y2="100" /><rect fill="cyan" height="10" width="10" x="330" y="90" /><rect fill="magenta" height="10" width="10" x="340" y="90" /><circle cx="345" cy="95" fill="white" r="3" /><rect fill="magenta" height="10" width="10" x="330" y="100" /><rect fill="magenta" height="10" width="10" x="340" y="100" /><line stroke="black" x1="340" x2="320" y1="100" y2="130" /><rect fill="magenta" height="10" width="10" x="310" y="120" /><circle cx="315" cy="125" fill="white" r="3" /><rect fill="cyan" height="10" width="10" x="320" y="120" /><rect fill="magenta" height="10" width="10" x="310" y="130" /><rect fill="magenta" height="10" width="10" x="320" y="130" /><line stroke="black" x1="320" x2="300" y1="130" y2="160" /><rect fill="magenta" height="10" width="10" x="290" y="150" /><rect fill="cyan" height="10" width="10" x="300" y="150" /><rect fill="magenta" height="10" width="10" x="290" y="160" /><circle cx="295" cy="165" fill="white" r="3" /><rect fill="magenta" height="10" width="10" x="300" y="160" /><line stroke="black" x1="300" x2="280" y1="160" y2="190" /><rect fill="magenta" height="10" width="10" x="270" y="180" /><rect fill="magenta" height="10" width="10" x="280" y="180" /><rect fill="magenta" height="10" width="10" x="270" y="190" /><circle cx="275" cy="195" fill="white" r="3" /><rect fill="magenta" height="10" width="10" x="280" y="190" /><line stroke="black" x1="300" x2="302" y1="160" y2="190" /><rect fill="magenta" height="10" width="10" x="292" y="180" /><rect fill="cyan" height="10" width="10" x="302" y="180" /><rect fill="magenta" height="10" width="10" x="292" y="190" /><rect fill="magenta" height="10" width="10" x="302" y="190" /><circle cx="307" cy="195" fill="white" r="3" /><line stroke="black" x1="302" x2="282" y1="190" y2="220" /><rect fill="magenta" height="10" width="10" x="272" y="210" /><rect fill="magenta" height="10" width="10" x="282" y="210" /><circle cx="287" cy="215" fill="white" r="3" /><rect fill="magenta" height="10" width="10" x="272" y="220" /><rect fill="cyan" height="10" width="10" x="282" y="220" /><line stroke="black" x1="282" x2="262" y1="220" y2="250" /><rect fill="magenta" height="10" width="10" x="252" y="240" /><circle cx="257" cy="245" fill="white" r="3" /><rect fill="magenta" height="10" width="10" x="262" y="240" /><rect fill="magenta" height="10" width="10" x="252" y="250" /><rect fill="cyan" height="10" width="10" x="262" y="250" /><line stroke="black" x1="262" x2="242" y1="250" y2="280" /><rect fill="magenta" height="10" width="10" x="232" y="270" /><circle cx="237" cy="275" fill="white" r="3" /><rect fill="magenta" height="10" width="10" x="242" y="270" /><rect fill="magenta" height="10" width="10" x="232" y="280" /><rect fill="magenta" height="10" width="10" x="242" y="280" /><line stroke="black" x1="262" x2="264" y1="250" y2="280" /><rect fill="magenta" height="10" width="10" x="254" y="270" /><rect fill="magenta" height="10" width="10" x="264" y="270" /><rect fill="magenta" height="10" width="10" x="254" y="280" /><circle cx="259" cy="285" fill="white" r="3" /><rect fill="cyan" height="10" width="10" x="264" y="280" /><line stroke="black" x1="264" x2="244" y1="280" y2="310" /><rect fill="magenta" height="10" width="10" x="234" y="300" /><rect fill="magenta" height="10" width="10" x="244" y="300" /><rect fill="cyan" height="10" width="10" x="234" y="310" /><rect fill="magenta" height="10" width="10" x="244" y="310" /><circle cx="249" cy="315" fill="white" r="3" /><line stroke="black" x1="244" x2="224" y1="310" y2="340" /><rect fill="magenta" height="10" width="10" x="214" y="330" /><rect fill="magenta" height="10" width="10" x="224" y="330" /><circle cx="229" cy="335" fill="white" r="3" /><rect fill="cyan" height="10" width="10" x="214" y="340" /><rect fill="magenta" height="10" width="10" x="224" y="340" /><line stroke="black" x1="224" x2="204" y1="340" y2="370" /><rect fill="magenta" height="10" width="10" x="194" y="360" /><rect fill="magenta" height="10" width="10" x="204" y="360" /><circle cx="209" cy="365" fill="white" r="3" /><rect fill="magenta" height="10" width="10" x="194" y="370" /><rect fill="magenta" height="10" width="10" x="204" y="370" /><line stroke="black" x1="224" x2="225" y1="340" y2="370" /><rect fill="magenta" height="10" width="10" x="215" y="360" /><circle cx="220" cy="365" fill="white" r="3" /><rect fill="magenta" height="10" width="10" x="225" y="360" /><rect fill="cyan" height="10" width="10" x="215" y="370" /><rect fill="magenta" height="10" width="10" x="225" y="370" /><line stroke="black" x1="225" x2="205" y1="370" y2="400" /><rect fill="cyan" height="10" width="10" x="195" y="390" /><rect fill="magenta" height="10" width="10" x="205" y="390" /><rect fill="magenta" height="10" width="10" x="195" y="400" /><circle cx="200" cy="405" fill="white" r="3" /><rect fill="magenta" height="10" width="10" x="205" y="400" /><line stroke="black" x1="205" x2="185" y1="400" y2="430" /><rect fill="cyan" height="10" width="10" x="175" y="420" /><rect fill="magenta" height="10" width="10" x="185" y="420" /><rect fill="magenta" height="10" width="10" x="175" y="430" /><rect fill="magenta" height="10" width="10" x="185" y="430" /><circle cx="190" cy="435" fill="white" r="3" /><line stroke="black" x1="185" x2="165" y1="430" y2="460" /><rect fill="magenta" height="10" width="10" x="155" y="450" /><rect fill="magenta" height="10" width="10" x="165" y="450" /><rect fill="magenta" height="10" width="10" x="155" y="460" /><rect fill="magenta" height="10" width="10" x="165" y="460" /><circle cx="170" cy="465" fill="white" r="3" /></svg>