<?xml version="1.0" encoding="utf-8" ?>
<svg baseProfile="tiny" height="600" version="1.2" width="800" xmlns="http://www.w3.org/2000/svg" xmlns:ev="http://www.w3.org/2001/xml-events" xmlns:xlink="http://www.w3.org/1999/xlink"><defs /><rect fill="cyan" height="10" width="10" x="390" y="0" /><rect fill="magenta" height="10" width="10" x="400" y="0" /><rect fill="cyan" height="10" width="10" x="390" y="10" /><circle cx="395" cy="15" fill="white" r="3" /><rect fill="magenta" height="10" width="10" x="400" y="10" /><line stroke="black" x1="400" x2="400" y1="10" y2="40" /><rect fill="cyan" height="10" width="10" x="390" y="30" /><rect fill="cyan" height="10" width="10" x="400" y="30" /><rect fill="cyan" height="10" width="10" x="390" y="40" /><circle cx="395" cy="45" fill="white" r="3" /><rect fill="magenta" height="10" width="10" x="400" y="40" /><line stroke="black" x1="400" x2="400" y1="40" y2="70" /><rect fill="cyan" height="10" width="10" x="390" y="60" /><rect fill="cyan" height="10" width="10" x="400" y="60" /><rect fill="magenta" height="10" width="10" x="390" y="70" /><rect fill="cyan" height="10" width="10" x="400" y="70" /><circle cx="405" cy="75" fill="white" r="3" /><line stroke="black" x1="400" x2="400" y1="70" y2="100" /><rect fill="cyan" height="10" width="10" x="390" y="90" /><rect fill="cyan" height="10" width="10" x="400" y="90" /><circle cx="405" cy="95" fill="white" r="3" /><rect fill="magenta" height="10" width="10" x="390" y="100" /><rect fill="cyan" height="10" width="10" x="400" y="100" /><line stroke="black" x1="400" x2="390" y1="100" y2="130" /><rect fill="cyan" height="10" width="10" x="380" y="120" /><circle cx="385" cy="125" fill="white" r="3" /><rect fill="cyan" height="10" width="10" x="390" y="120" /><rect fill="magenta" height="10" width="10" x="380" y="130" /><rect fill="cyan" height="10" width="10" x="390" y="130" /><line stroke="black" x1="400" x2="412" y1="100" y2="130" /><rect fill="cyan" height="10" width="10" x="402" y="120" /><rect fill="cyan" height="10" width="10" x="412" y="120" /><circle cx="417" cy="125" fill="white" r="3" /><rect fill="cyan" height="10" width="10" x="402" y="130" /><rect fill="cyan" height="10" width="10" x="412" y="130" /><line stroke="black" x1="390" x2="400" y1="130" y2="160" /><rect fill="magenta" height="10" width="10" x="390" y="150" /><rect fill="cyan" height="10" width="10" x="400" y="150" /><rect fill="cyan" height="10" width="10" x="390" y="160" /><circle cx="395" cy="165" fill="white" r="3" /><rect fill="cyan" height="10" width="10" x="400" y="160" /><line stroke="black" x1="400" x2="400" y1="160" y2="190" /><rect fill="magenta" height="10" width="10" x="390" y="180" /><rect fill="cyan" height="10" width="10" x="400" y="180" /><rect fill="cyan" height="10" width="10" x="390" y="190" /><rect fill="cyan" height="10" width="10" x="400" y="190" /><circle cx="405" cy="195" fill="white" r="3" /><line stroke="black" x1="400" x2="390" y1="190" y2="220" /><rect fill="magenta" height="10" width="10" x="380" y="210" /><rect fill="cyan" height="10" width="10" x="390" y="210" /><circle cx="395" cy="215" fill="white" r="3" /><rect fill="cyan" height="10" width="10" x="380" y="220" /><rect fill="cyan" height="10" width="10" x="390" y="220" /><line stroke="black" x1="400" x2="412" y1="190" y2="220" /><rect fill="cyan" height="10" width="10" x="402" y="210" /><rect fill="cyan" height="10" width="10" x="412" y="210" /><rect fill="cyan" height="10" width="10" x="402" y="220" /><rect fill="cyan" height="10" width="10" x="412" y="220" /><circle cx="417" cy="225" fill="white" r="3" /><line stroke="black" x1="390" x2="400" y1="220" y2="250" /><rect fill="cyan" height="10" width="10" x="390" y="240" /><circle cx="395" cy="245" fill="white" r="3" /><rect fill="magenta" height="10" width="10" x="400" y="240" /><rect fill="cyan" height="10" width="10" x="390" y="250" /><rect fill="cyan" height="10" width="10" x="400" y="250" /><line stroke="black" x1="400" x2="400" y1="250" y2="280" /><rect fill="cyan" height="10" width="10" x="390" y="270" /><rect fill="magenta" height="10" width="10" x="400" y="270" /><rect fill="cyan" height="10" width="10" x="390" y="280" /><circle cx="395" cy="285" fill="white" r="3" /><rect fill="cyan" height="10" width="10" x="400" y="280" /><line stroke="black" x1="400" x2="390" y1="280" y2="310" /><rect fill="cyan" height="10" width="10" x="380" y="300" /><rect fill="magenta" height="10" width="10" x="390" y="300" /><rect fill="cyan" height="10" width="10" x="380" y="310" /><rect fill="cyan" height="10" width="10" x="390" y="310" /><circle cx="395" cy="315" fill="white" r="3" /><line stroke="black" x1="400" x2="412" y1="280" y2="310" /><rect fill="cyan" height="10" width="10" x="402" y="300" /><rect fill="cyan" height="10" width="10" x="412" y="300" /><rect fill="cyan" height="10" width="10" x="402" y="310" /><circle cx="407" cy="315" fill="white" r="3" /><rect fill="cyan" height="10" width="10" x="412" y="310" /><line stroke="black" x1="390" x2="400" y1="310" y2="340" /><rect fill="cyan" height="10" width="10" x="390" y="330" /><rect fill="cyan" height="10" width="10" x="400" y="330" /><circle cx="405" cy="335" fill="white" r="3" /><rect fill="cyan" height="10" width="10" x="390" y="340" /><rect fill="magenta" height="10" width="10" x="400" y="340" /><line stroke="black" x1="400" x2="400" y1="340" y2="370" /><rect fill="cyan" height="10" width="10" x="390" y="360" /><circle cx="395" cy="365" fill="white" r="3" /><rect fill="cyan" height="10" width="10" x="400" y="360" /><rect fill="cyan" height="10" width="10" x="390" y="370" /><rect fill="magenta" height="10" width="10" x="400" y="370" /><line stroke="black" x1="400" x2="400" y1="370" y2="400" /><rect fill="cyan" height="10" width="10" x="390" y="390" /><circle cx="395" cy="395" fill="white" r="3" /><rect fill="cyan" height="10" width="10" x="400" y="390" /><rect fill="cyan" height="10" width="10" x="390" y="400" /><rect fill="cyan" height="10" width="10" x="400" y="400" /></svg>