<?xml version="1.0" encoding="utf-8" ?>
<svg baseProfile="tiny" height="600" version="1.2" width="800" xmlns="http://www.w3.org/2000/svg" xmlns:ev="http://www.w3.org/2001/xml-events" xmlns:xlink="http://www.w3.org/1999/xlink"><defs /><rect fill="magenta" height="10" width="10" x="390" y="0" /><rect fill="cyan" height="10" width="10" x="400" y="0" /><circle cx="405" cy="5" fill="white" r="3" /><rect fill="magenta" height="10" width="10" x="390" y="10" /><rect fill="cyan" height="10" width="10" x="400" y="10" /><line stroke="black" x1="400" x2="380" y1="10" y2="40" /><rect fill="magenta" height="10" width="10" x="370" y="30" /><rect fill="cyan" height="10" width="10" x="380" y="30" /><circle cx="385" cy="35" fill="white" r="3" /><rect fill="cyan" height="10" width="10" x="370" y="40" /><rect fill="cyan" height="10" width="10" x="380" y="40" /><line stroke="black" x1="380" x2="360" y1="40" y2="70" /><rect fill="cyan" height="10" width="10" x="350" y="60" /><circle cx="355" cy="65" fill="white" r="3" /><rect fill="magenta" height="10" width="10" x="360" y="60" /><rect fill="cyan" height="10" width="10" x="350" y="70" /><rect fill="cyan" height="10" width="10" x="360" y="70" /><line stroke="black" x1="360" x2="340" y1="70" y2="100" /><rect fill="cyan" height="10" width="10" x="330" y="90" /><rect fill="magenta" height="10" width="10" x="340" y="90" /><rect fill="cyan" height="10" width="10" x="330" y="100" /><circle cx="335" cy="105" fill="white" r="3" /><rect fill="cyan" height="10" width="10" x="340" y="100" /><line stroke="black" x1="340" x2="320" y1="100" y2="130" /><rect fill="cyan" height="10" width="10" x="310" y="120" /><rect fill="cyan" height="10" width="10" x="320" y="120" /><rect fill="cyan" height="10" width="10" x="310" y="130" /><circle cx="315" cy="135" fill="white" r="3" /><rect fill="cyan" height="10" width="10" x="320" y="130" /><line stroke="black" x1="340" x2="342" y1="100" y2="130" /><rect fill="cyan" height="10" width="10" x="332" y="120" /><rect fill="magenta" height="10" width="10" x="342" y="120" /><rect fill="cyan" height="10" width="10" x="332" y="130" /><rect fill="cyan" height="10" width="10" x="342" y="130" /><circle cx="347" cy="135" fill="white" r="3" /><line stroke="black" x1="342" x2="322" y1="130" y2="160" /><rect fill="cyan" height="10" width="10" x="312" y="150" /><rect fill="cyan" height="10" width="10" x="322" y="150" /><circle cx="327" cy="155" fill="white" r="3" /><rect fill="cyan" height="10" width="10" x="312" y="160" /><rect fill="magenta" height="10" width="10" x="322" y="160" /><line stroke="black" x1="322" x2="302" y1="160" y2="190" /><rect fill="cyan" height="10" width="10" x="292" y="180" /><circle cx="297" cy="185" fill="white" r="3" /><rect fill="cyan" height="10" width="10" x="302" y="180" /><rect fill="cyan" height="10" width="10" x="292" y="190" /><rect fill="magenta" height="10" width="10" x="302" y="190" /><line stroke="black" x1="302" x2="282" y1="190" y2="220" /><rect fill="cyan" height="10" width="10" x="272" y="210" /><rect fill="cyan" height="10" width="10" x="282" y="210" /><rect fill="cyan" height="10" width="10" x="272" y="220" /><circle cx="277" cy="225" fill="white" r="3" /><rect fill="magenta" height="10" width="10" x="282" y="220" /><line stroke="black" x1="302" x2="304" y1="190" y2="220" /><rect fill="cyan" height="10" width="10" x="294" y="210" /><circle cx="299" cy="215" fill="white" r="3" /><rect fill="cyan" height="10" width="10" x="304" y="210" /><rect fill="cyan" height="10" width="10" x="294" y="220" /><rect fill="cyan" height="10" width="10" x="304" y="220" /><line stroke="black" x1="282" x2="262" y1="220" y2="250" /><rect fill="cyan" height="10" width="10" x="252" y="240" /><rect fill="cyan" height="10" width="10" x="262" y="240" /><rect fill="magenta" height="10" width="10" x="252" y="250" /><rect fill="cyan" height="10" width="10" x="262" y="250" /><circle cx="267" cy="255" fill="white" r="3" /><line stroke="black" x1="262" x2="242" y1="250" y2="280" /><rect fill="cyan" height="10" width="10" x="232" y="270" /><rect fill="cyan" height="10" width="10" x="242" y="270" /><circle cx="247" cy="275" fill="white" r="3" /><rect fill="magenta" height="10" width="10" x="232" y="280" /><rect fill="cyan" height="10" width="10" x="242" y="280" /><line stroke="black" x1="242" x2="222" y1="280" y2="310" /><rect fill="cyan" height="10" width="10" x="212" y="300" /><rect fill="cyan" height="10" width="10" x="222" y="300" /><circle cx="227" cy="305" fill="white" r="3" /><rect fill="cyan" height="10" width="10" x="212" y="310" /><rect fill="cyan" height="10" width="10" x="222" y="310" /><line stroke="black" x1="242" x2="244" y1="280" y2="310" /><rect fill="cyan" height="10" width="10" x="234" y="300" /><circle cx="239" cy="305" fill="white" r="3" /><rect fill="cyan" height="10" width="10" x="244" y="300" /><rect fill="magenta" height="10" width="10" x="234" y="310" /><rect fill="cyan" height="10" width="10" x="244" y="310" /><line stroke="black" x1="244" x2="224" y1="310" y2="340" /><rect fill="magenta" height="10" width="10" x="214" y="330" /><rect fill="cyan" height="10" width="10" x="224" y="330" /><rect fill="cyan" height="10" width="10" x="214" y="340" /><circle cx="219" cy="345" fill="white" r="3" /><rect fill="cyan" height="10" width="10" x="224" y="340" /><line stroke="black" x1="224" x2="204" y1="340" y2="370" /><rect fill="magenta" height="10" width="10" x="194" y="360" /><rect fill="cyan" height="10" width="10" x="204" y="360" /><rect fill="cyan" height="10" width="10" x="194" y="370" /><rect fill="cyan" height="10" width="10" x="204" y="370" /><circle cx="209" cy="375" fill="white" r="3" /><line stroke="black" x1="204" x2="184" y1="370" y2="400" /><rect fill="cyan" height="10" width="10" x="174" y="390" /><rect fill="cyan" height="10" width="10" x="184" y="390" /><rect fill="cyan" height="10" width="10" x="174" y="400" /><rect fill="cyan" height="10" width="10" x="184" y="400" /><circle cx="189" cy="405" fill="white" r="3" /></svg>