<?xml version="1.0" encoding="utf-8" ?>
<svg baseProfile="tiny" height="600" version="1.2" width="800" xmlns="http://www.w3.org/2000/svg" xmlns:ev="http://www.w3.org/2001/xml-events" xmlns:xlink="http://www.w3.org/1999/xlink"><defs /><rect fill="cyan" height="10" width="10" x="390" y="0" /><circle cx="395" cy="5" fill="white" r="3" /><rect fill="cyan" height="10" width="10" x="400" y="0" /><rect fill="magenta" height="10" width="10" x="390" y="10" /><rect fill="magenta" height="10" width="10" x="400" y="10" /><line stroke="black" x1="400" x2="380" y1="10" y2="40" /><rect fill="cyan" height="10" width="10" x="370" y="30" /><circle cx="375" cy="35" fill="white" r="3" /><rect fill="cyan" height="10" width="10" x="380" y="30" /><rect fill="magenta" height="10" width="10" x="370" y="40" /><rect fill="cyan" height="10" width="10" x="380" y="40" /><line stroke="black" x1="380" x2="360" y1="40" y2="70" /><rect fill="cyan" height="10" width="10" x="350" y="60" /><rect fill="cyan" height="10" width="10" x="360" y="60" /><circle cx="365" cy="65" fill="white" r="3" /><rect fill="magenta" height="10" width="10" x="350" y="70" /><rect fill="cyan" height="10" width="10" x="360" y="70" /><line stroke="black" x1="360" x2="340" y1="70" y2="100" /><rect fill="cyan" height="10" width="10" x="330" y="90" /><rect fill="cyan" height="10" width="10" x="340" y="90" /><circle cx="345" cy="95" fill="white" r="3" /><rect fill="cyan" height="10" width="10" x="330" y="100" /><rect fill="cyan" height="10" width="10" x="340" y="100" /><line stroke="black" x1="360" x2="362" y1="70" y2="100" /><rect fill="cyan" height="10" width="10" x="352" y="90" /><rect fill="cyan" height="10" width="10" x="362" y="90" /><rect fill="magenta" height="10" width="10" x="352" y="100" /><rect fill="cyan" height="10" width="10" x="362" y="100" /><circle cx="367" cy="105" fill="white" r="3" /><line stroke="black" x1="362" x2="342" y1="100" y2="130" /><rect fill="cyan" height="10" width="10" x="332" y="120" /><rect fill="cyan" height="10" width="10" x="342" y="120" /><rect fill="cyan" height="10" width="10" x="332" y="130" /><circle cx="337" cy="135" fill="white" r="3" /><rect fill="magenta" height="10" width="10" x="342" y="130" /><line stroke="black" x1="342" x2="322" y1="130" y2="160" /><rect fill="cyan" height="10" width="10" x="312" y="150" /><circle cx="317" cy="155" fill="white" r="3" /><rect fill="cyan" height="10" width="10" x="322" y="150" /><rect fill="cyan" height="10" width="10" x="312" y="160" /><rect fill="magenta" height="10" width="10" x="322" y="160" /><line stroke="black" x1="322" x2="302" y1="160" y2="190" /><rect fill="cyan" height="10" width="10" x="292" y="180" /><circle cx="297" cy="185" fill="white" r="3" /><rect fill="cyan" height="10" width="10" x="302" y="180" /><rect fill="cyan" height="10" width="10" x="292" y="190" /><rect fill="cyan" height="10" width="10" x="302" y="190" /><line stroke="black" x1="322" x2="324" y1="160" y2="190" /><rect fill="cyan" height="10" width="10" x="314" y="180" /><rect fill="cyan" height="10" width="10" x="324" y="180" /><circle cx="329" cy="185" fill="white" r="3" /><rect fill="cyan" height="10" width="10" x="314" y="190" /><rect fill="magenta" height="10" width="10" x="324" y="190" /><line stroke="black" x1="324" x2="304" y1="190" y2="220" /><rect fill="cyan" height="10" width="10" x="294" y="210" /><rect fill="magenta" height="10" width="10" x="304" y="210" /><rect fill="cyan" height="10" width="10" x="294" y="220" /><rect fill="cyan" height="10" width="10" x="304" y="220" /><circle cx="309" cy="225" fill="white" r="3" /><line stroke="black" x1="304" x2="284" y1="220" y2="250" /><rect fill="cyan" height="10" width="10" x="274" y="240" /><rect fill="magenta" height="10" width="10" x="284" y="240" /><rect fill="cyan" height="10" width="10" x="274" y="250" /><circle cx="279" cy="255" fill="white" r="3" /><rect fill="cyan" height="10" width="10" x="284" y="250" /><line stroke="black" x1="284" x2="264" y1="250" y2="280" /><rect fill="cyan" height="10" width="10" x="254" y="270" /><rect fill="cyan" height="10" width="10" x="264" y="270" /><rect fill="cyan" height="10" width="10" x="254" y="280" /><circle cx="259" cy="285" fill="white" r="3" /><rect fill="cyan" height="10" width="10" x="264" y="280" /><line stroke="black" x1="284" x2="286" y1="250" y2="280" /><rect fill="cyan" height="10" width="10" x="276" y="270" /><circle cx="281" cy="275" fill="white" r="3" /><rect fill="magenta" height="10" width="10" x="286" y="270" /><rect fill="cyan" height="10" width="10" x="276" y="280" /><rect fill="cyan" height="10" width="10" x="286" y="280" /><line stroke="black" x1="286" x2="266" y1="280" y2="310" /><rect fill="magenta" height="10" width="10" x="256" y="300" /><rect fill="cyan" height="10" width="10" x="266" y="300" /><circle cx="271" cy="305" fill="white" r="3" /><rect fill="cyan" height="10" width="10" x="256" y="310" /><rect fill="cyan" height="10" width="10" x="266" y="310" /><line stroke="black" x1="266" x2="246" y1="310" y2="340" /><rect fill="magenta" height="10" width="10" x="236" y="330" /><rect fill="cyan" height="10" width="10" x="246" y="330" /><rect fill="cyan" height="10" width="10" x="236" y="340" /><rect fill="cyan" height="10" width="10" x="246" y="340" /><circle cx="251" cy="345" fill="white" r="3" /><line stroke="black" x1="246" x2="226" y1="340" y2="370" /><rect fill="cyan" height="10" width="10" x="216" y="360" /><rect fill="cyan" height="10" width="10" x="226" y="360" /><rect fill="cyan" height="10" width="10" x="216" y="370" /><rect fill="cyan" height="10" width="10" x="226" y="370" /><circle cx="231" cy="375" fill="white" r="3" /></svg>